<?xml version="1.0" encoding="UTF-8" standalone="no"?>
<!-- Created with Inkscape (http://www.inkscape.org/) -->

<svg
   width="210mm"
   height="297mm"
   viewBox="0 0 210 297"
   version="1.1"
   id="svg1"
   xml:space="preserve"
   sodipodi:docname="ganesha-outline.svg"
   inkscape:version="1.3 (0e150ed6c4, 2023-07-21)"
   xmlns:inkscape="http://www.inkscape.org/namespaces/inkscape"
   xmlns:sodipodi="http://sodipodi.sourceforge.net/DTD/sodipodi-0.dtd"
   xmlns="http://www.w3.org/2000/svg"
   xmlns:svg="http://www.w3.org/2000/svg"><sodipodi:namedview
     id="namedview1"
     pagecolor="#ffffff"
     bordercolor="#000000"
     borderopacity="0.25"
     inkscape:showpageshadow="2"
     inkscape:pageopacity="0.0"
     inkscape:pagecheckerboard="0"
     inkscape:deskcolor="#d1d1d1"
     inkscape:document-units="mm"
     inkscape:zoom="0.52369235"
     inkscape:cx="638.73379"
     inkscape:cy="476.42476"
     inkscape:window-width="1920"
     inkscape:window-height="986"
     inkscape:window-x="-11"
     inkscape:window-y="-11"
     inkscape:window-maximized="1"
     inkscape:current-layer="g240" /><defs
     id="defs1" /><g
     inkscape:label="Layer 1"
     inkscape:groupmode="layer"
     id="layer1"
     style="display:none"
     sodipodi:insensitive="true"><path
       style="fill:#7c916f"
       d="m 87.618652,188.21273 c 0.615212,-0.55491 1.683901,-1.35859 2.374865,-1.78594 0.690964,-0.42735 1.256511,-0.87106 1.256771,-0.98603 7.61e-4,-0.33646 -3.25955,-2.88955 -1.789297,-3.79823 0.179794,-0.11112 2.114559,-0.21756 4.299479,-0.23653 4.373145,-0.038 6.230415,-0.38189 9.66113,-1.78889 3.21267,-1.31759 5.02002,-2.51954 7.41046,-4.92822 4.35881,-4.39206 6.75285,-9.1514 7.66243,-15.23285 0.42599,-2.84819 -0.21492,-3.68763 0.36231,-3.68763 l -21.748458,-1.05159 c 0.592871,1.14649 0.928259,6.20126 0.502829,8.37063 -0.488657,2.49177 -2.156583,5.76551 -3.748529,7.35746 -1.069355,1.06935 -2.202641,1.76255 -5.43516,3.32454 -4.595164,2.22043 -6.145018,3.42586 -6.882115,5.3527 -0.64042,1.67412 -0.573499,3.81052 0.173399,5.53562 0.628281,1.45112 3.621191,4.56382 4.388194,4.56382 0.216208,0 0.896462,-0.45402 1.511674,-1.00894 z"
       id="path27"
       sodipodi:nodetypes="csssssssccsssssscc" /><path
       style="display:none;fill:#800000"
       d="m 113.12707,245.3042 c -1.34243,-0.23663 -1.69029,-0.63839 -2.1763,-2.51354 -0.46435,-1.79158 -1.95314,-4.93342 -2.40646,-5.0784 -0.17339,-0.0555 -0.53584,0.6668 -0.85399,1.70181 -1.14526,3.72565 -2.14083,4.43721 -5.95931,4.25924 -3.293304,-0.15349 -5.25991,-1.11391 -6.808715,-3.32514 l -0.378219,-0.53998 -2.337541,0.62421 c -11.5394,3.08143 -22.74837,-0.24177 -28.604563,-8.48059 -3.348152,-4.71037 -4.830907,-10.47809 -3.74102,-14.55209 1.276666,-4.77217 5.317619,-8.47505 9.918046,-9.08829 2.685523,-0.35798 2.896539,-1.35724 0.596093,-2.82279 -1.78812,-1.13916 -3.261409,-2.9297 -4.071423,-4.94816 -0.44274,-1.10325 -0.559353,-1.95335 -0.554578,-4.04284 0.0078,-3.39584 0.612636,-5.41515 3.048212,-10.17611 4.433785,-8.66698 10.526531,-14.98405 15.829082,-16.41188 l 1.171971,-0.31558 -2.785713,-0.90088 c -4.665856,-1.50892 -9.239708,-4.09209 -12.608421,-7.12086 l -1.294363,-1.16374 -1.166528,1.19846 c -3.342832,3.43432 -8.346909,4.39199 -15.718611,3.00818 -6.451756,-1.21112 -6.575818,-1.21601 -9.506877,-0.37449 -1.583411,0.4546 -3.069512,0.47986 -3.974424,0.0676 -0.84911,-0.38688 -0.858132,-1.01514 -0.02581,-1.79707 1.627414,-1.52888 2.445367,-5.01521 2.007497,-8.55648 -0.332717,-2.69085 -1.453287,-5.05725 -3.722083,-7.86023 -1.907137,-2.35618 -3.852025,-5.2475 -5.947843,-8.84223 -2.134311,-3.66076 -4.52475,-6.03041 -7.789419,-7.72169 -1.375341,-0.7125 -2.542721,-1.43408 -2.594176,-1.60351 -0.05146,-0.16943 0.430494,-0.6686 1.070999,-1.10928 0.640505,-0.44068 2.357769,-2.20706 3.81614,-3.92529 4.373167,-5.15238 6.810957,-7.16144 11.610198,-9.56831 3.714847,-1.86303 6.665502,-2.67433 10.426768,-2.86687 5.081031,-0.26011 9.054799,0.85492 12.209816,3.42606 0.822456,0.67025 1.566596,1.14741 1.653646,1.06036 0.08705,-0.0871 0.158272,-0.71814 0.158272,-1.40243 0,-0.68429 0.184304,-2.30156 0.409564,-3.59393 1.474143,-8.45751 5.772708,-15.567324 12.753457,-21.094198 1.055026,-0.835296 1.918229,-1.574796 1.918229,-1.643333 0,-0.06854 -0.141893,-0.35182 -0.315319,-0.629519 -0.327115,-0.523794 -0.257799,-0.86168 0.681977,-3.324371 0.251455,-0.658939 0.408248,-1.974803 0.415479,-3.486831 0.01267,-2.649843 0.212109,-3.087699 1.539166,-3.379169 0.915821,-0.201148 2.637671,0.38627 4.176564,1.424856 l 1.16268,0.784683 0.437353,-0.921651 c 0.240544,-0.506909 0.919602,-1.334439 1.509018,-1.838958 0.922049,-0.789239 1.261919,-0.917305 2.434408,-0.917305 0.928915,0 1.777109,0.210222 2.664354,0.660351 0.715887,0.363193 1.331378,0.660849 1.367758,0.661458 0.03638,6.09e-4 0.06615,-0.718011 0.06615,-1.596933 0,-2.389161 1.262189,-4.397457 3.366268,-5.35614 0.449856,-0.204968 0.602482,-0.495828 0.602482,-1.148156 0,-1.63617 1.046288,-3.826379 2.54281,-5.322901 1.410899,-1.4109 3.936579,-2.82913 5.593129,-3.140681 0.85177,-0.160195 0.8599,-0.17611 0.8599,-1.684096 0,-1.143198 0.13762,-1.697325 0.55253,-2.224799 2.26405,-2.878272 6.7152,-1.3025 6.5466,2.31759 l -0.0601,1.289652 1.66896,0.627412 c 3.77497,1.41913 6.42807,4.401793 7.03225,7.905784 0.15228,0.883145 0.38548,1.189725 1.40877,1.852084 1.80734,1.169852 2.81381,2.953861 2.87766,5.100736 0.0279,0.936842 0.11762,1.770321 0.19948,1.852176 0.0819,0.08186 0.41963,-0.105587 0.75063,-0.416537 0.72002,-0.676425 2.5968,-1.377 3.68886,-1.377 1.70779,0 3.517,1.411791 3.83282,2.990881 0.0832,0.415782 0.22369,0.651331 0.31229,0.523442 0.63869,-0.92188 3.14164,-1.97974 4.68416,-1.97974 1.3953,0 1.59856,0.330845 1.77992,2.897075 0.0937,1.325783 0.4473,3.18842 0.82741,4.358461 0.61858,1.904088 0.64289,2.763031 0.0888,3.137932 -0.12526,0.08475 0.63996,0.819486 1.70049,1.632743 7.94923,6.095776 12.77324,14.869172 13.59523,24.725552 l 0.18048,2.16409 1.4846,-1.21389 c 1.90312,-1.5561 4.60692,-2.85252 7.11112,-3.40965 1.52426,-0.33912 2.77074,-0.40759 5.45086,-0.29944 4.10152,0.16551 6.12019,0.67599 10.10369,2.555 4.65247,2.19456 8.193,5.09737 12.44576,10.204 1.21188,1.45521 2.74454,3.00302 3.40591,3.43958 1.77014,1.16846 1.5788,1.60002 -1.34902,3.04271 -4.06837,2.00469 -5.38748,3.40549 -8.99716,9.55431 -1.07732,1.83513 -3.00614,4.66155 -4.28628,6.28092 -3.43959,4.35111 -4.26734,6.32412 -4.27318,10.18551 -0.004,2.66315 0.5627,4.57906 1.86861,6.31706 0.57307,0.76269 1.00205,1.50799 0.95327,1.65623 -0.1365,0.41484 -1.28709,0.92273 -2.10022,0.92707 -0.40172,0.002 -1.83047,-0.24271 -3.175,-0.54411 -2.73895,-0.614 -3.44907,-0.57945 -8.53001,0.41508 -4.43467,0.86803 -6.58973,1.02605 -9.02728,0.66191 -2.67587,-0.39974 -4.99256,-1.50259 -6.91472,-3.29172 l -1.51323,-1.40852 -2.1006,1.85404 c -3.89659,3.43923 -7.36428,5.24795 -13.90449,7.25246 -0.21307,0.0653 0.56083,0.5027 1.71979,0.97199 5.55664,2.25003 9.99424,6.89445 14.15326,14.81286 4.36537,8.31128 4.70985,14.35086 1.05534,18.5026 -0.55215,0.62727 -1.61666,1.42749 -2.36559,1.77827 -0.91313,0.42769 -1.31504,0.7593 -1.2201,1.00671 0.0779,0.20292 0.14158,0.57872 0.14158,0.83512 0,0.37439 0.44799,0.55421 2.27512,0.9132 2.78146,0.54651 4.34371,1.31157 6.26629,3.0687 5.91253,5.40372 5.01862,15.07005 -2.1052,22.76463 -3.69108,3.98681 -8.84638,6.43685 -15.09481,7.17377 -3.04744,0.3594 -7.5089,-1.4e-4 -11.05286,-0.89073 l -2.38125,-0.5984 -1.5875,1.6166 c -1.79476,1.82767 -3.45056,2.75994 -5.95313,3.35181 -2.27769,0.53869 -3.62127,0.66247 -4.84661,0.44648 z"
       id="path2" /></g><g
     inkscape:label="Layer 1 copy"
     inkscape:groupmode="layer"
     id="g160"
     style="display:none"
     sodipodi:insensitive="true"><path
       style="fill:#000000"
       d="m 110.98583,58.762425 c 0.39137,-0.324804 0.48779,-1.226185 0.20892,-1.952928 -0.24448,-0.637084 -1.46317,-1.172027 -2.30393,-1.011305 -1.52683,0.291873 -2.01675,2.500001 -0.70672,3.185285 0.72828,0.380969 2.21796,0.263436 2.80173,-0.221052 z"
       id="path81" /><path
       style="fill:#000000"
       d="m 106.46431,67.350961 c 4.82155,-0.152242 10.33669,0.111528 12.67465,0.606186 0.75243,0.159196 0.76476,0.143892 0.59293,-0.735964 -0.25768,-1.319515 -1.97143,-3.643748 -3.4147,-4.631121 -4.23088,-2.894438 -12.13336,-2.354746 -15.61151,1.066171 -1.06894,1.051354 -2.311169,3.249079 -2.311169,4.088875 0,0.490744 0.06288,0.49724 1.389063,0.143477 0.828976,-0.221132 3.522716,-0.437908 6.680736,-0.537624 z"
       id="path82" /><path
       style="fill:#000000"
       d="m 95.639545,74.762582 c 1.04357,-0.436031 3.125252,-0.350813 4.093903,0.167593 0.381102,0.203959 0.498872,0.06321 0.736392,-0.880057 0.49994,-1.985459 2.01991,-3.36673 5.20072,-4.726168 l 0.79375,-0.339239 -1.19063,-0.09771 c -1.71404,-0.140669 -5.760124,0.444786 -7.098641,1.02715 -2.395827,1.042379 -4.013861,2.890412 -4.013861,4.584419 0,0.805014 0.128606,0.827981 1.478367,0.264015 z"
       id="path83" /><path
       style="fill:#000000"
       d="m 121.78931,74.668632 c 1.34506,-0.0085 1.95971,0.104642 2.3151,0.426268 0.45059,0.407773 0.48386,0.407189 0.48386,-0.0085 0,-1.545446 -1.69945,-3.913213 -3.44272,-4.796594 -1.51994,-0.770217 -5.49137,-1.51523 -7.47012,-1.401347 l -1.39029,0.08002 1.21062,0.596573 c 2.45529,1.209927 3.98527,2.945755 4.36081,4.947511 l 0.16145,0.86061 0.97002,-0.346463 c 0.53351,-0.190555 1.79408,-0.351689 2.80127,-0.358076 z"
       id="path84" /><path
       style="fill:#000000"
       d="m 107.86991,73.947111 c 0.19099,-0.07643 0.4192,-0.06703 0.50712,0.02089 0.0879,0.08792 -0.0684,0.150453 -0.34727,0.138965 -0.30823,-0.0127 -0.37092,-0.07539 -0.15985,-0.159853 z"
       id="path85" /><path
       style="fill:#000000"
       d="m 105.30438,76.058107 c -0.0361,-0.686583 1.11927,-1.937581 1.76727,-1.913484 0.36874,0.01371 0.35449,0.05627 -0.0782,0.233354 -0.67684,0.277027 -1.36441,1.056648 -1.52949,1.73425 -0.11873,0.487379 -0.13134,0.483105 -0.1596,-0.05412 z"
       id="path86" /><path
       style="fill:#000000"
       d="m 112.72166,76.855446 c -0.0218,-0.318834 -0.15871,-0.653283 -0.30423,-0.743219 -0.14552,-0.08994 -0.26458,-0.391875 -0.26458,-0.670974 0,-0.279099 -0.30137,-0.704919 -0.66972,-0.946267 -0.71857,-0.470825 -0.73889,-0.749525 -0.035,-0.479401 0.69701,0.26747 1.54705,1.871155 1.4239,2.686349 -0.084,0.556221 -0.12034,0.593277 -0.15041,0.153512 z"
       id="path87" /><path
       style="fill:#000000"
       d="m 105.31546,77.302852 c 0,-0.363802 0.0601,-0.512631 0.13345,-0.330729 0.0734,0.181901 0.0734,0.479557 0,0.661458 -0.0734,0.181901 -0.13345,0.03307 -0.13345,-0.330729 z"
       id="path88" /><path
       style="fill:#000000"
       d="m 110.34126,80.151304 c 0.24056,-0.195656 0.86564,-0.868333 1.38907,-1.494837 0.52343,-0.626504 0.95169,-1.012914 0.95169,-0.858688 0,0.405858 -1.56271,2.124264 -2.2191,2.440196 -0.49234,0.236971 -0.50685,0.226632 -0.12166,-0.08667 z"
       id="path89" /><path
       style="fill:#000000"
       d="m 88.177372,80.096434 c -0.267882,-0.698089 0.02734,-1.33713 0.659212,-1.426919 0.831712,-0.118187 1.195787,0.297519 0.987473,1.127509 -0.126842,0.505377 -0.342179,0.68083 -0.835599,0.68083 -0.365597,0 -0.730586,-0.171639 -0.811086,-0.38142 z"
       id="path90" /><path
       style="fill:#000000"
       d="m 129.86946,80.202798 c -0.60899,-0.608993 -0.58377,-0.997985 0.0924,-1.42448 0.31817,-0.200696 0.58092,-0.198353 0.91029,0.0081 0.6805,0.426582 0.72835,1.337017 0.0883,1.679578 -0.4369,0.233821 -0.64381,0.183897 -1.09093,-0.263217 z"
       id="path91" /><path
       style="fill:#000000"
       d="m 107.3242,80.071849 c -0.69122,-0.50713 -1.25677,-1.063315 -1.25677,-1.235969 0,-0.172653 0.38696,0.05234 0.8599,0.499989 1.1277,1.067382 2.62013,1.849581 2.18468,1.145015 -0.0926,-0.149772 0.0132,-0.194461 0.24745,-0.104567 0.22501,0.08634 0.34323,0.263572 0.26271,0.393844 -0.27951,0.452265 -1.04803,0.218725 -2.29797,-0.698312 z"
       id="path92" /><path
       style="fill:#000000"
       d="m 136.32591,81.669251 c -0.0914,-0.238269 -0.0138,-0.574042 0.17242,-0.746161 0.26734,-0.247048 0.30503,-0.21723 0.17898,0.141603 -0.23436,0.667128 0.36417,0.899581 0.80716,0.313478 0.3713,-0.491262 0.37827,-0.49064 0.28789,0.02572 -0.11736,0.670468 -1.21381,0.871616 -1.44645,0.265356 z"
       id="path93" /><path
       style="fill:#000000"
       d="m 81.352274,81.074506 c -0.28903,-0.289031 -0.487223,0.170618 -0.279711,0.648707 0.196764,0.453329 0.211028,0.452915 0.320658,-0.0093 0.0631,-0.266052 0.04468,-0.553786 -0.04095,-0.63941 z"
       id="path94" /><path
       style="fill:#000000"
       d="m 80.854977,82.164709 c -0.281192,-0.281192 -0.225763,-1.367425 0.0794,-1.556027 0.146823,-0.09074 0.510933,-0.08755 0.809133,0.0071 0.741671,0.235397 0.614337,1.548197 -0.16093,1.659173 -0.29703,0.04252 -0.624451,-0.0071 -0.727604,-0.110243 z"
       id="path95" /><path
       style="fill:#000000"
       d="m 100.72615,82.942956 c 0.191,-0.07643 0.4192,-0.06703 0.50712,0.02089 0.0879,0.08792 -0.0684,0.150452 -0.34727,0.138964 -0.30822,-0.0127 -0.37091,-0.07539 -0.15985,-0.159854 z"
       id="path96" /><path
       style="fill:#000000"
       d="m 110.38078,83.038116 c -0.1566,-0.252247 7.34808,-0.175033 9.31269,0.09582 0.72761,0.10031 -1.03966,0.168807 -3.92725,0.152216 -2.8876,-0.01659 -5.31105,-0.128205 -5.38544,-0.248032 z"
       id="path97" /><path
       style="fill:#000000"
       d="m 101.96639,83.090706 c -0.30517,-0.126944 1.23475,-0.194553 3.63785,-0.159717 2.29186,0.03322 4.1671,0.124465 4.16719,0.202758 2.8e-4,0.234825 -7.23296,0.194937 -7.80504,-0.04304 z"
       id="path98" /><path
       style="fill:#000000"
       d="m 98.994859,83.204916 c 0.257431,-0.06708 0.614619,-0.06267 0.79375,0.0098 0.179132,0.07248 -0.03149,0.127362 -0.468056,0.12197 -0.436563,-0.0054 -0.583125,-0.06469 -0.325694,-0.131774 z"
       id="path99" /><path
       style="fill:#000000"
       d="m 127.9617,83.730715 c 0.32743,-0.06306 0.86321,-0.06306 1.19063,0 0.32742,0.06306 0.0595,0.114662 -0.59531,0.114662 -0.65485,0 -0.92274,-0.0516 -0.59532,-0.114662 z"
       id="path100" /><path
       style="fill:#000000"
       d="m 124.20303,83.647385 c -0.86672,-0.11037 -1.75969,-0.1453 -1.98437,-0.07762 -0.35724,0.107605 -0.3587,0.09176 -0.0116,-0.12625 0.21828,-0.137116 1.45031,-0.190095 2.73785,-0.117732 1.44233,0.08106 2.20409,0.218323 1.98438,0.357563 -0.39566,0.25074 -0.48395,0.249575 -2.72622,-0.03596 z"
       id="path101" /><path
       style="fill:#000000"
       d="m 131.93045,84.271378 c 0.18191,-0.0734 0.47956,-0.0734 0.66146,0 0.1819,0.0734 0.0331,0.133452 -0.33073,0.133452 -0.3638,0 -0.51263,-0.06005 -0.33073,-0.133452 z"
       id="path102" /><path
       style="fill:#000000"
       d="m 90.577977,84.209578 c 0.176084,-0.292214 0.0796,-0.333439 -0.462163,-0.197466 -0.376588,0.09452 -0.749186,0.06752 -0.827994,-0.06 -0.131804,-0.213263 1.027828,-0.35482 5.667108,-0.691791 0.945885,-0.0687 2.13651,-0.01077 2.645833,0.128745 l 0.926042,0.253661 -1.058334,-0.113908 c -0.582083,-0.06265 -1.772708,0.05683 -2.645833,0.265511 -1.889298,0.45155 -2.335704,0.477512 -2.116667,0.123102 0.08994,-0.145521 -0.0221,-0.264583 -0.248968,-0.264583 -0.226869,0 -0.41249,0.1318 -0.41249,0.29289 0,0.161788 -0.192659,0.218961 -0.43041,0.127727 -0.236726,-0.09084 -0.616769,-0.01428 -0.844539,0.17013 -0.341771,0.27671 -0.375245,0.270766 -0.191585,-0.03402 z"
       id="path103" /><path
       style="fill:#000000"
       d="m 134.04712,84.535958 c 0.1819,-0.0734 0.47956,-0.0734 0.66146,0 0.1819,0.0734 0.0331,0.133453 -0.33073,0.133453 -0.3638,0 -0.51263,-0.06005 -0.33073,-0.133453 z"
       id="path104" /><path
       style="fill:#000000"
       d="m 135.1716,84.711187 c 0,-0.302887 0.37715,-0.302887 1.32292,0 0.59032,0.189055 0.55475,0.214672 -0.33073,0.23821 -0.54571,0.0145 -0.99219,-0.09269 -0.99219,-0.23821 z"
       id="path105" /><path
       style="fill:#000000"
       d="m 138.41275,85.311208 c -0.61847,-0.0557 -1.12448,-0.195716 -1.12448,-0.311137 0,-0.218647 2.60528,0.111537 2.85566,0.361916 0.0786,0.07862 -0.0257,0.122149 -0.23188,0.09673 -0.20615,-0.02542 -0.88084,-0.0918 -1.4993,-0.147504 z"
       id="path106" /><path
       style="fill:#000000"
       d="m 95.087219,84.462832 c 6.180231,-0.414417 29.964921,-0.25442 33.602091,0.226038 1.30969,0.173005 3.69094,0.492707 5.29167,0.71045 1.60072,0.217742 3.84711,0.468369 4.99197,0.556949 l 2.08156,0.161053 -0.1859,-0.636922 c -0.10225,-0.350307 -0.42537,-1.291765 -0.71806,-2.09213 -0.29269,-0.800364 -0.59759,-2.383581 -0.67755,-3.518259 l -0.1454,-2.063051 -0.82123,0.17853 c -1.46936,0.31943 -1.86704,0.559699 -3.199,1.93275 -0.72208,0.74435 -1.40521,1.353364 -1.51807,1.353364 -0.11286,0 -0.2052,-0.420543 -0.2052,-0.93454 0,-1.747391 -1.15007,-3.514396 -2.56668,-3.943543 -1.7126,-0.518813 -4.15387,1.279453 -4.47657,3.297485 -0.151,0.944311 -0.24607,1.051431 -0.93311,1.051431 -0.68439,0 -0.74744,-0.06986 -0.59852,-0.663197 0.26045,-1.037731 -0.10524,-2.388518 -0.84763,-3.130901 -1.29426,-1.294258 -4.3332,-1.181194 -6.41755,0.238765 l -0.96098,0.654666 -0.15225,-1.658521 c -0.25976,-2.829749 -1.25889,-4.062701 -5.06666,-6.252387 l -2.30849,-1.327515 -1.26338,0.86718 c -0.69486,0.476949 -2.0049,1.199261 -2.91119,1.605138 -0.98054,0.439126 -1.91304,1.085694 -2.30279,1.596681 -0.9035,1.184555 -1.32516,2.976222 -0.98789,4.197692 0.14609,0.52909 0.20774,0.961982 0.137,0.961982 -0.0707,0 -0.50763,-0.285964 -0.97086,-0.635475 -1.55352,-1.172135 -4.06626,-1.546905 -5.477751,-0.816994 -1.115639,0.576919 -1.400322,1.278563 -1.192769,2.939758 0.161769,1.294756 0.131335,1.423128 -0.337392,1.423128 -0.362625,0 -0.740453,-0.450545 -1.27581,-1.521354 -2.051379,-4.103127 -6.67627,-3.821531 -6.772711,0.412371 -0.01743,0.765348 -0.15775,1.387447 -0.316884,1.404915 -0.718527,0.07887 -1.15229,-0.143619 -2.13768,-1.096471 -1.062928,-1.027828 -3.039024,-2.093229 -3.902605,-2.104067 -0.400129,-0.005 -0.463021,0.262392 -0.463021,1.968769 0,1.365806 -0.16698,2.398212 -0.541605,3.348645 z"
       id="path107"
       sodipodi:nodetypes="cssscssscsssssssssscsscssssssssssssssscc" /><path
       style="fill:#000000"
       d="m 196.02577,127.96675 c 0,-0.30561 -6.37771,-7.5127 -7.70116,-8.70264 -7.90643,-7.10883 -18.27829,-9.457 -25.59716,-5.79516 -0.81707,0.4088 -2.35076,1.56208 -3.40821,2.56285 l -1.92264,1.81957 v 2.75996 c 0,1.51797 -0.12847,3.58797 -0.28549,4.59999 -0.15702,1.01202 -0.24632,1.95088 -0.19844,2.08635 0.0479,0.13548 0.62284,-0.42655 1.27768,-1.24894 3.40348,-4.27428 8.68071,-6.93389 13.75833,-6.93389 4.03721,0 7.41318,1.34642 12.42223,4.9543 3.04088,2.19026 4.68351,3.01811 6.89236,3.47359 2.08333,0.4296 4.7625,0.66814 4.7625,0.42402 z"
       id="path108" /><path
       style="fill:#000000"
       d="m 28.938183,127.2656 c 2.431064,-0.7089 3.226087,-1.14074 6.22091,-3.37903 5.645219,-4.21918 10.645034,-5.59499 15.875001,-4.36838 3.442333,0.80735 7.787452,3.63518 9.956998,6.48008 0.544922,0.71455 1.029921,1.26002 1.077775,1.21217 0.04785,-0.0479 -0.02766,-0.90844 -0.167816,-1.9124 -0.140153,-1.00397 -0.336723,-3.19462 -0.43682,-4.86811 l -0.181996,-3.0427 -1.124748,-1.09074 c -4.040696,-3.9185 -9.438319,-5.31402 -15.605685,-4.03474 -3.562032,0.73886 -6.479354,1.99188 -10.054167,4.31837 -2.790339,1.81596 -4.690357,3.59001 -7.801322,7.28413 -1.411751,1.67639 -2.775609,3.22096 -3.030796,3.43239 -0.44096,0.36534 -0.439735,0.39312 0.02469,0.55993 0.767583,0.27568 3.22491,-0.001 5.247971,-0.59097 z"
       id="path109" /><path
       style="fill:#000000"
       d="m 168.67288,162.59869 c 3.20869,-0.58603 6.19464,-0.57935 8.24395,0.0185 0.91347,0.26647 1.72545,0.41989 1.8044,0.34095 0.0789,-0.0789 -0.10346,-0.6277 -0.40535,-1.21945 -1.84348,-3.61353 -1.75579,-8.76628 0.21564,-12.67028 0.42178,-0.83525 1.76896,-2.79947 2.99373,-4.36494 1.22478,-1.56547 2.80556,-3.82766 3.51286,-5.02708 2.61649,-4.43701 3.97831,-6.36149 5.76816,-8.15134 1.00906,-1.00906 1.9414,-1.83465 2.07187,-1.83465 0.13047,0 0.23721,-0.11906 0.23721,-0.26458 0,-0.14552 -0.28511,-0.26459 -0.63359,-0.26459 -1.04752,0 -4.06452,-1.03428 -5.53138,-1.89625 -0.75661,-0.44461 -2.48011,-1.57706 -3.83001,-2.51656 -4.42516,-3.07981 -7.61501,-4.31061 -11.17169,-4.31061 -5.09384,0 -10.3296,2.94767 -13.97846,7.86972 -1.14604,1.54591 -1.46699,2.26907 -2.26258,5.09789 -1.23649,4.39657 -1.54686,7.01085 -1.18345,9.96841 0.15705,1.27812 0.23238,3.63355 0.16738,5.23428 -0.0973,2.39564 -0.26899,3.34507 -0.9709,5.36785 l -0.85274,2.45743 0.53939,0.87275 c 0.87556,1.41669 3.34963,3.58379 4.90368,4.29525 3.0595,1.40069 6.39544,1.72178 10.36188,0.99735 z"
       id="path110" /><path
       style="fill:#000000"
       d="m 43.81956,162.34598 c 2.134246,-0.44887 2.254307,-0.44595 5.953125,0.14488 7.935059,1.26751 12.827897,-0.28584 16.018005,-5.0853 l 0.659417,-0.99208 -0.690611,-2.08957 c -0.973726,-2.94619 -1.267591,-6.01195 -0.961128,-10.02702 0.299933,-3.92952 0.149029,-5.10216 -1.337905,-10.39665 -1.221284,-4.34859 -1.849645,-5.45057 -4.746699,-8.32449 -3.212551,-3.1869 -6.545422,-4.7978 -10.486254,-5.0684 -4.113052,-0.28244 -7.615199,0.9651 -12.406958,4.4196 -3.300792,2.37963 -5.156137,3.32673 -7.686732,3.92386 l -1.982364,0.46776 1.208377,0.9054 c 1.581649,1.18508 3.825407,4.12837 6.148455,8.06534 1.030393,1.74625 2.895842,4.52461 4.145443,6.17412 1.249601,1.64952 2.564883,3.49889 2.922848,4.10972 2.169598,3.70213 2.446632,9.01691 0.668115,12.81751 -0.786254,1.68019 -0.788472,1.69751 -0.199207,1.55627 0.327744,-0.0786 1.576077,-0.34899 2.774073,-0.60095 z"
       id="path111" /><path
       style="fill:#000000"
       d="m 158.9237,163.20122 c -2.29573,-0.78238 -4.27371,-2.16246 -5.73473,-4.00122 -1.13715,-1.43116 -1.17419,-1.45287 -1.55389,-0.91077 -0.35526,0.50721 -0.32259,0.64977 0.37701,1.64518 1.37941,1.96266 5.13924,3.83291 7.76576,3.86293 0.79845,0.009 0.68076,-0.073 -0.85415,-0.59612 z"
       id="path112" /><path
       style="fill:#000000"
       d="m 62.146594,163.23782 c 2.211142,-0.67384 4.919248,-2.4593 5.567577,-3.67072 0.170962,-0.31944 0.153538,-0.70196 -0.05258,-1.15434 -0.371964,-0.81637 -0.658352,-0.86085 -0.887813,-0.13788 -0.328996,1.03657 -2.957483,3.41364 -4.67113,4.22433 -0.921715,0.43604 -1.85444,0.79472 -2.072721,0.79707 -0.218281,0.002 -0.575469,0.12853 -0.79375,0.28041 -0.474843,0.33041 1.449467,0.10635 2.910417,-0.33887 z"
       id="path113" /><path
       style="fill:#000000"
       d="m 82.384055,175.19064 c 0.947676,-0.78809 2.329861,-1.60455 3.439584,-2.03178 2.251502,-0.86681 3.045872,-1.34331 3.045872,-1.82706 0,-0.24821 -0.320137,-0.36436 -0.992188,-0.35998 -2.389001,0.0156 -4.937882,1.0567 -7.856424,3.20909 l -1.837153,1.35487 1.175695,0.46548 c 0.646632,0.25601 1.235226,0.47479 1.307986,0.48619 0.07276,0.0114 0.845243,-0.57217 1.716628,-1.29681 z"
       id="path114" /><path
       style="fill:#000000"
       d="m 80.402844,178.92449 c 0,-0.13362 0.0704,-0.42641 0.156453,-0.65065 0.104718,-0.2729 -0.135882,-0.58594 -0.727604,-0.9467 -0.486231,-0.29644 -0.973354,-0.53942 -1.082495,-0.53997 -0.448049,-0.002 -0.151751,0.94483 0.512522,1.63818 0.722913,0.75456 1.141124,0.93749 1.141124,0.49914 z"
       id="path115" /><path
       style="fill:#000000"
       d="m 107.88441,183.37336 c 0.76747,-0.26754 0.8317,-0.37828 0.76709,-1.32249 -0.0388,-0.56677 -0.13006,-1.00007 -0.20282,-0.96288 -1.95734,1.00042 -3.59946,1.87185 -3.6965,1.96165 -0.24605,0.22766 0.66989,0.60769 1.47421,0.61166 0.45123,0.002 1.19734,-0.12735 1.65802,-0.28794 z"
       id="path116" /><path
       style="fill:#000000"
       d="m 112.61587,183.76317 c 0.86313,-0.23131 0.7387,-0.48199 -0.52112,-1.04982 -1.50043,-0.67629 -2.58773,-1.62678 -2.58773,-2.26213 0,-0.2867 -0.11907,-0.44768 -0.26459,-0.35775 -0.34898,0.21569 -0.33861,1.61625 0.0169,2.28052 0.32231,0.60223 1.77476,1.55524 2.36436,1.55134 0.21828,-0.001 0.66477,-0.0744 0.99219,-0.16216 z"
       id="path117" /><path
       style="fill:#000000"
       d="m 99.876756,185.00439 c 0.900524,-1.07021 3.628834,-2.96406 5.476364,-3.8014 1.68366,-0.76307 3.09556,-1.6857 3.09556,-2.02285 0,-0.11872 -0.88587,0.22919 -1.9686,0.77312 -1.08274,0.54394 -3.13657,1.38871 -4.56407,1.87728 -2.519876,0.86244 -2.720661,0.88861 -6.894936,0.89854 -2.743696,0.007 -4.26787,0.10597 -4.212125,0.27481 0.04805,0.14552 0.554061,0.58731 1.12448,0.98175 0.570418,0.39444 1.00544,0.84667 0.966715,1.00497 -0.04771,0.19504 0.250806,0.2233 0.926042,0.0877 1.804927,-0.36253 4.279646,-0.22751 4.767243,0.26008 0.565979,0.56598 0.514861,0.57929 1.283327,-0.33398 z"
       id="path118" /><path
       style="fill:#000000"
       d="m 106.44873,118.70173 c 0.28248,-0.21366 0.63966,-0.38468 0.79375,-0.38005 0.15409,0.005 0.0491,0.18322 -0.23343,0.39688 -0.28247,0.21365 -0.63966,0.38467 -0.79375,0.38004 -0.15409,-0.005 -0.049,-0.18322 0.23343,-0.39687 z"
       id="path119" /><path
       style="fill:#000000"
       d="m 104.78629,121.22368 c 0,-0.3638 0.0601,-0.51263 0.13345,-0.33073 0.0734,0.18191 0.0734,0.47956 0,0.66146 -0.0734,0.1819 -0.13345,0.0331 -0.13345,-0.33073 z"
       id="path120" /><path
       style="fill:#000000"
       d="m 74.455145,123.2742 c 0.971091,-3.33437 3.500367,-6.36493 6.571808,-7.8743 1.5445,-0.759 2.104635,-0.89413 3.761547,-0.90744 1.655921,-0.0133 2.032684,0.07 2.521508,0.55763 0.770856,0.76895 0.488721,1.34964 -0.741696,1.52656 -6.50539,0.93537 -9.30247,2.40838 -11.097813,5.84437 -0.766309,1.46659 -1.332579,1.94242 -1.015354,0.85318 z"
       id="path121" /><path
       style="fill:#000000"
       d="m 143.66544,122.94327 c -0.77786,-1.75847 -3.01281,-3.98403 -4.90248,-4.88187 -1.72988,-0.82192 -5.01944,-1.60022 -6.76351,-1.60022 -1.42786,0 -1.70191,-0.62981 -0.66292,-1.52351 0.67492,-0.58054 0.94415,-0.63665 2.64333,-0.55084 3.72172,0.18794 7.51098,2.83269 9.37653,6.54444 0.7245,1.4415 1.26164,3.20283 0.97674,3.20283 -0.0775,0 -0.37798,-0.53587 -0.66769,-1.19083 z"
       id="path122" /><path
       style="fill:#000000"
       d="m 111.59391,125.43442 c 0.49294,-0.49689 1.01272,-1.23694 1.15507,-1.64456 0.14234,-0.40761 0.31154,-0.68837 0.376,-0.62391 0.29383,0.29383 -0.73613,2.00866 -1.53751,2.55987 l -0.88983,0.61205 z"
       id="path123" /><path
       style="fill:#000000"
       d="m 106.94955,126.17525 c -0.52634,-0.29515 -1.67587,-1.56379 -1.67587,-1.84954 0,-0.067 0.43736,0.29068 0.97192,0.79483 0.53455,0.50415 1.21916,1.01668 1.52135,1.13895 0.33117,0.134 0.39178,0.22526 0.15257,0.22971 -0.21828,0.004 -0.65477,-0.13721 -0.96997,-0.31395 z"
       id="path124" /><path
       style="fill:#000000"
       d="m 108.66366,126.59919 c 0.19099,-0.0764 0.4192,-0.067 0.50712,0.0209 0.0879,0.0879 -0.0684,0.15045 -0.34727,0.13897 -0.30823,-0.0127 -0.37092,-0.0754 -0.15985,-0.15986 z"
       id="path125" /><path
       style="fill:#000000"
       d="m 128.70133,134.068 c 0.75677,-0.75677 0.80263,-1.13078 0.23756,-1.93753 -0.53784,-0.76787 -1.30676,-0.74553 -2.11369,0.0614 -0.80693,0.80692 -0.82926,1.57585 -0.0614,2.11369 0.80675,0.56506 1.18077,0.51921 1.93753,-0.23756 z"
       id="path126" /><path
       style="fill:#000000"
       d="m 138.55231,135.36389 c 1.16056,-0.81289 0.39101,-2.49854 -1.14065,-2.49854 -1.25726,0 -1.92052,0.97183 -1.44566,2.11823 0.26643,0.64322 0.48516,0.79219 1.1632,0.79219 0.45929,0 1.09969,-0.18535 1.42311,-0.41188 z"
       id="path127" /><path
       style="fill:#000000"
       d="m 125.83976,141.68641 0.90072,-0.37635 -0.80039,-0.91159 c -1.01884,-1.16039 -1.44477,-2.74008 -1.28419,-4.76278 0.41654,-5.24686 6.00438,-8.20229 11.24532,-5.9477 3.57713,1.53884 5.19004,6.04366 3.62455,10.12326 -0.15116,0.39393 -0.0165,0.46243 0.90919,0.46243 h 1.08664 v -2.32566 c 0,-3.87785 -0.9691,-6.6255 -3.0502,-8.64809 -2.00969,-1.9532 -4.20222,-2.6479 -7.08034,-2.24339 -1.97772,0.27796 -3.59035,1.07112 -4.95757,2.43834 -1.33869,1.33869 -1.99131,2.57704 -2.5039,4.7512 -0.3912,1.65928 -0.53657,6.41562 -0.23095,7.55638 0.17307,0.64602 0.33871,0.63704 2.14112,-0.11605 z"
       id="path128" /><path
       style="fill:#000000"
       d="m 122.73986,142.7969 c -0.48907,-1.28635 -0.32573,-6.97638 0.26677,-9.29302 1.21812,-4.76279 4.43084,-7.44487 9.24674,-7.71946 2.02191,-0.11528 2.45857,-0.0518 4.06447,0.59063 1.68822,0.67539 1.82929,0.69256 2.28706,0.27828 0.26832,-0.24283 0.56469,-0.74762 0.65859,-1.12176 0.12141,-0.48374 0.25263,-0.59837 0.45422,-0.39678 0.38512,0.38513 0.0619,1.53503 -0.62435,2.2213 -0.54253,0.54254 -0.54522,0.57547 -0.075,0.91931 0.71271,0.52115 0.97135,0.4533 2.05465,-0.53896 1.17939,-1.08028 1.30966,-0.5592 0.18144,0.72577 -0.49439,0.56309 -0.73445,1.06815 -0.63315,1.33213 0.21738,0.56648 0.42446,0.54114 1.96742,-0.24074 0.72277,-0.36625 1.31412,-0.55543 1.31412,-0.42039 0,0.2525 -1.14581,1.26556 -1.99531,1.76413 -0.856,0.50239 -0.17001,0.90927 1.5479,0.91809 1.49792,0.008 1.5941,0.0416 1.12444,0.39688 -0.28247,0.21365 -0.96708,0.38846 -1.52135,0.38846 -0.55427,0 -1.00594,0.0893 -1.00371,0.19843 0.0142,0.69609 1.30114,1.38907 2.57963,1.38907 0.54607,0 0.62765,0.0695 0.37647,0.32068 -0.17637,0.17637 -0.81015,0.30116 -1.40839,0.2773 l -1.08771,-0.0434 0.16194,0.97947 c 0.0891,0.53871 0.16324,1.78933 0.16485,2.77917 0.003,1.76078 0.0201,1.80568 0.79666,2.0764 1.22622,0.42747 0.94099,0.76664 -0.46302,0.55061 -2.05801,-0.31666 -10.0834,-0.21341 -12.47241,0.16046 -1.8474,0.28911 -5.26931,1.24963 -7.23538,2.03095 -0.34084,0.13546 -0.52854,5.3e-4 -0.7276,-0.52303 z"
       id="path129" /><path
       style="fill:#000000"
       d="m 82.30024,134.27962 c 0.60246,-0.54522 0.624271,-1.61425 0.04597,-2.25326 -0.535982,-0.59226 -1.110375,-0.61419 -1.884496,-0.072 -0.65565,0.45924 -0.815142,1.90102 -0.270539,2.44562 0.453986,0.45399 1.543084,0.39182 2.109063,-0.12038 z"
       id="path130" /><path
       style="fill:#000000"
       d="m 91.630101,135.73568 c 0.812775,-0.37032 1.042234,-0.98882 0.7004,-1.88792 -0.539197,-1.41819 -2.21967,-1.47829 -2.799154,-0.1001 -0.37481,0.89141 -0.273135,1.45855 0.351747,1.96203 0.5091,0.4102 0.891294,0.41588 1.747007,0.026 z"
       id="path131" /><path
       style="fill:#000000"
       d="m 94.523581,141.79511 c 0.288995,-1.07838 0.164416,-5.06149 -0.213091,-6.81302 -1.160201,-5.38303 -3.965189,-7.9375 -8.715936,-7.9375 -3.37741,0 -6.127987,1.84954 -7.703558,5.18002 -0.835503,1.76611 -1.127654,3.1677 -1.236269,5.93101 l -0.08834,2.24748 1.058333,-0.0893 c 0.582083,-0.0491 1.104125,-0.13395 1.160093,-0.18848 0.05597,-0.0545 -0.06073,-0.48992 -0.259329,-0.96753 -0.472667,-1.13672 -0.468852,-3.70814 0.0079,-5.35167 0.776337,-2.67607 4.019383,-4.90942 7.128962,-4.90942 3.759106,0 6.677899,2.2468 7.601324,5.85129 0.603384,2.35523 0.101532,5.39126 -1.021156,6.17762 -0.539606,0.37795 -0.522305,0.40348 0.615561,0.90817 1.497279,0.66411 1.477009,0.66458 1.665466,-0.0386 z"
       id="path132" /><path
       style="fill:#000000"
       d="m 92.970553,142.72361 c -3.884126,-1.62745 -12.095414,-2.37896 -17.197917,-1.57396 -1.309688,0.20663 -2.437334,0.32573 -2.50588,0.26467 -0.189546,-0.16883 0.568892,-0.60722 1.342979,-0.77626 0.670626,-0.14645 0.693383,-0.21944 0.845171,-2.71093 0.08579,-1.40824 0.234108,-2.76401 0.329587,-3.01283 0.152485,-0.39737 0.07924,-0.41949 -0.602234,-0.18193 -0.557287,0.19427 -0.993327,0.1797 -1.547936,-0.0517 l -0.772104,-0.32219 0.661458,-0.0903 c 2.064992,-0.2818 2.311409,-0.37756 2.599695,-1.01028 0.291937,-0.64073 0.272784,-0.65706 -0.770678,-0.65706 -1.072374,0 -2.0936,-0.36769 -2.0936,-0.7538 0,-0.11331 0.714672,-0.15432 1.588161,-0.0911 1.032867,0.0747 1.726695,-1e-4 1.984375,-0.21396 0.47241,-0.39206 0.517283,-0.7932 0.08873,-0.7932 -0.485208,0 -2.754795,-1.40458 -2.439441,-1.5097 0.155718,-0.0519 0.848234,0.14786 1.538925,0.44392 0.690691,0.29607 1.369643,0.46795 1.508782,0.38195 0.139139,-0.086 -0.239598,-0.69073 -0.841638,-1.34387 -1.189093,-1.29001 -1.226967,-1.91287 -0.0517,-0.85019 1.508697,1.36416 1.612573,1.40708 2.174478,0.89856 0.506903,-0.45874 0.505096,-0.47609 -0.137255,-1.31826 -0.358006,-0.46937 -0.65092,-0.99099 -0.65092,-1.15915 0,-0.4874 0.48465,-0.35415 0.790505,0.21735 0.359497,0.67172 1.130798,1.08407 1.546825,0.82695 0.251011,-0.15513 0.233182,-0.37552 -0.07877,-0.97372 -0.450738,-0.86434 -0.534744,-1.54517 -0.162247,-1.31496 0.134325,0.083 0.324923,0.51835 0.423552,0.9674 0.197601,0.89968 0.07286,0.89513 2.771804,0.10096 4.266784,-1.25551 8.933573,0.81055 10.871018,4.81278 0.970725,2.00525 1.329489,3.82653 1.47598,7.4929 0.144484,3.61612 -0.07628,5.05832 -0.764928,4.9971 -0.185503,-0.0165 -1.051653,-0.32931 -1.924778,-0.69516 z"
       id="path133" /><path
       style="fill:#000000"
       d="m 87.618652,188.21273 c 0.615212,-0.55491 1.683901,-1.35859 2.374865,-1.78594 0.690964,-0.42735 1.256511,-0.87106 1.256771,-0.98603 2.6e-4,-0.11497 -0.475777,-0.66208 -1.05786,-1.2158 -1.081469,-1.02878 -1.403818,-2.16687 -0.731437,-2.58243 0.179794,-0.11112 2.114559,-0.21756 4.299479,-0.23653 4.373145,-0.038 6.230415,-0.38189 9.66113,-1.78889 3.21267,-1.31759 5.02002,-2.51954 7.41046,-4.92822 4.35881,-4.39206 6.75285,-9.1514 7.66243,-15.23285 0.42599,-2.84819 0.4945,-3.0427 1.07173,-3.0427 0.45909,0 0.52413,0.18106 0.52413,1.45909 0,1.36223 0.0571,1.49391 0.8599,1.98339 1.58607,0.96705 3.09647,0.49361 3.59927,-1.1282 0.64827,-2.09098 0.6328,-2.99759 -0.075,-4.39433 -0.73228,-1.44509 -0.85803,-2.3986 -0.37945,-2.87718 0.22435,-0.22436 0.44237,-0.0213 0.85989,0.80093 0.78345,1.54282 1.99348,2.18446 3.99892,2.12051 0.87313,-0.0278 1.7661,-0.0872 1.98438,-0.1319 0.71284,-0.14598 0.67757,0.37875 -0.0626,0.93137 -0.4867,0.36337 -1.26731,0.57907 -2.38125,0.65799 -1.80023,0.12754 -2.04092,0.30367 -2.05584,1.50437 -0.0143,1.14903 -0.85217,2.82367 -1.82046,3.63844 -1.08491,0.91289 -2.27817,1.12612 -3.65237,0.65267 l -1.09224,-0.37631 -0.45209,1.61123 c -0.5609,1.99903 -2.05259,5.72631 -2.89477,7.23313 l -0.63239,1.13146 0.97356,-0.005 c 2.39711,-0.0119 11.79692,-1.65831 15.66334,-2.74343 10.6973,-3.00223 17.18572,-8.05322 19.75133,-15.37569 0.713,-2.03495 0.73777,-2.27497 0.64168,-6.2177 -0.21152,-8.67793 -0.20191,-8.82766 0.84023,-13.09688 1.44619,-5.9244 1.80475,-8.48334 1.96491,-14.02291 0.32067,-11.09171 -1.98569,-18.47297 -7.87661,-25.208289 -1.12359,-1.284656 -2.85965,-3.003942 -3.85789,-3.820636 -2.49107,-2.038022 -5.29516,-3.190887 -5.73488,-3.432913 -17.17572,-2.619084 -44.432224,-2.655894 -54.114091,-0.619247 -1.059034,0.222774 -3.873537,0.934212 -4.314173,0.934212 -0.580385,0 -1.468772,0.503158 -3.223849,1.825898 -7.45926,5.621786 -11.958202,13.027255 -13.116097,21.589725 -0.998992,7.38739 -0.348457,15.35967 1.907377,23.37482 l 1.091242,3.87726 -0.06603,5.86524 c -0.07598,6.74907 0.147246,8.19164 1.794991,11.59979 2.968962,6.1409 10.963723,10.97119 21.742623,13.13649 l 2.929764,0.58855 0.509483,-0.64608 c 0.698077,-0.88523 2.52764,-4.69675 2.73088,-5.68923 0.141263,-0.68983 0.06186,-0.86547 -0.535867,-1.18536 -1.119811,-0.59931 -2.965396,-2.82818 -3.741011,-4.51793 -0.699719,-1.52441 -0.736701,-1.55669 -1.783954,-1.55709 -1.092246,-4.2e-4 -2.820041,-0.70066 -2.977381,-1.20667 -0.05657,-0.18194 0.606242,-0.27523 1.879663,-0.26458 1.744887,0.0146 2.047173,-0.0583 2.676458,-0.64501 0.856322,-0.79844 1.452878,-1.88849 1.452878,-2.65474 0,-1.0594 0.660295,-0.36276 0.744189,0.78515 0.06319,0.86462 -0.07742,1.37398 -0.595312,2.15657 -0.372924,0.56353 -0.678043,1.21048 -0.678043,1.43768 0,1.11065 2.838273,5.15451 3.617805,5.15451 0.382234,0 0.410682,-0.32631 0.253735,-2.91042 -0.18758,-3.08846 0.0021,-3.57975 0.792127,-2.05196 0.592871,1.14649 0.799274,5.23387 0.373844,7.40324 -0.488657,2.49177 -2.156583,5.76551 -3.748529,7.35746 -1.069355,1.06935 -2.202641,1.76255 -5.43516,3.32454 -4.595164,2.22043 -6.145018,3.42586 -6.882115,5.3527 -0.64042,1.67412 -0.573499,3.81052 0.173399,5.53562 0.628281,1.45112 3.621191,4.56382 4.388194,4.56382 0.216208,0 0.896462,-0.45402 1.511674,-1.00894 z"
       id="path134"
       sodipodi:nodetypes="cssssssssssssssscsssssscssccssssssssssssscssscssssssscssssssssssssscc" /><path
       style="fill:#000000"
       d="m 140.36856,188.65963 c 4.00796,-1.056 6.58973,-1.15122 8.28235,-0.30547 0.64691,0.32324 1.20453,0.55937 1.23916,0.52473 0.0733,-0.0733 -0.82399,-1.87426 -2.334,-4.6843 -1.15478,-2.14897 -3.39633,-5.3871 -4.7752,-6.89824 -1.65443,-1.81312 -4.41071,-3.91842 -6.33366,-4.83777 -1.67382,-0.80024 -5.11251,-1.71321 -5.3937,-1.43202 -0.0519,0.0519 0.47096,1.22165 1.16195,2.5994 2.12165,4.23035 3.06553,10.05648 2.36589,14.60352 l -0.19338,1.25677 h 1.42158 c 0.78187,0 2.83342,-0.37198 4.55901,-0.82662 z"
       id="path135" /><path
       style="fill:#000000"
       d="m 132.82668,188.89094 c 0.4726,-0.88051 0.614,-5.71825 0.23567,-8.06348 -0.17998,-1.11567 -0.54903,-2.72277 -0.82011,-3.57135 -0.63812,-1.99747 -2.85586,-6.29093 -3.24899,-6.28989 -0.16717,4.4e-4 -1.49457,0.22922 -2.94977,0.50839 -3.1149,0.59758 -8.75741,1.34289 -10.16661,1.34289 -0.90664,0 -1.25265,0.25767 -4.11272,3.06257 -1.71753,1.68441 -2.95778,3.03952 -2.75611,3.01136 0.79835,-0.11148 1.06742,0.0478 1.59704,0.94545 0.38008,0.64418 1.05458,1.18363 2.17389,1.73861 2.41849,1.19915 4.24815,2.68658 4.88294,3.96961 0.43659,0.88244 0.59441,1.02696 0.73146,0.66983 0.26503,-0.69067 2.0649,-1.49174 3.34009,-1.48658 1.01853,0.004 4.0117,0.53285 5.26078,0.92929 0.39433,0.12516 0.31707,-0.15982 -0.43395,-1.60066 -1.01717,-1.95146 -1.15744,-3.26476 -0.51334,-4.80631 0.53124,-1.27145 0.76397,-0.95148 0.68661,0.944 -0.0699,1.71348 0.29668,2.8187 1.63291,4.92271 0.83452,1.31403 3.58755,4.35434 3.95155,4.3639 0.10402,0.003 0.33292,-0.26292 0.50866,-0.59034 z"
       id="path136" /><path
       style="fill:#000000"
       d="m 83.313261,189.3874 c 0,-0.0544 -0.488454,-0.61992 -1.085453,-1.25677 -1.392092,-1.48503 -2.35078,-3.53313 -2.547925,-5.44328 -0.124576,-1.20703 -0.298946,-1.62932 -0.871797,-2.11135 -0.393841,-0.33139 -0.97947,-1.21481 -1.301398,-1.96316 l -0.585324,-1.36062 -0.920778,0.8915 c -1.323595,1.2815 -3.800119,4.99593 -5.221508,7.83152 -0.673283,1.34316 -1.224151,2.48572 -1.224151,2.53903 0,0.0533 0.625078,-0.11902 1.389063,-0.38295 1.973739,-0.68186 4.207345,-0.62237 6.98186,0.18595 3.124001,0.91014 5.387411,1.35973 5.387411,1.07013 z"
       id="path137" /><path
       style="fill:#000000"
       d="m 120.20475,191.10269 c 0.0801,-0.1296 -0.13819,-0.42161 -0.4851,-0.64891 -0.60173,-0.39428 -0.63644,-0.38344 -0.75479,0.23564 -0.10262,0.53685 -0.0189,0.64892 0.48511,0.64892 0.33503,0 0.67469,-0.10604 0.75478,-0.23565 z"
       id="path138" /><path
       style="fill:#000000"
       d="m 98.659095,190.91315 c 0,-0.279 -0.143882,-0.36997 -0.418515,-0.26458 -0.230183,0.0883 -0.527839,0.1606 -0.661458,0.1606 -0.133619,0 -0.242944,0.11906 -0.242944,0.26458 0,0.14552 0.297656,0.26459 0.661458,0.26459 0.431147,0 0.661459,-0.14805 0.661459,-0.42519 z"
       id="path139" /><path
       style="fill:#000000"
       d="m 117.5386,189.46099 c -0.0516,-2.3581 -1.14925,-4.43422 -2.65125,-5.01478 -0.60521,-0.23393 -2.34446,0.12508 -2.59867,0.53641 -0.13952,0.22573 0.78431,5.91704 1.02364,6.3062 0.0615,0.1 1.04616,0.12228 2.18815,0.0495 l 2.07634,-0.1323 z"
       id="path140" /><path
       style="fill:#000000"
       d="m 112.26192,190.80917 c -0.0128,-0.3638 -0.18933,-1.83844 -0.39237,-3.27697 l -0.36915,-2.61552 -1.154,-0.49465 c -1.12745,-0.48329 -1.17977,-0.48326 -2.27503,0.001 -1.03515,0.4579 -1.15575,0.61959 -1.57406,2.11044 -0.5473,1.95054 -0.82318,4.08758 -0.60207,4.66377 0.13803,0.35971 0.62376,0.41127 3.27598,0.34774 l 3.11392,-0.0746 z"
       id="path141" /><path
       style="fill:#000000"
       d="m 105.09792,189.63362 c 0.0916,-1.08312 0.40662,-2.60117 0.70015,-3.37344 0.29352,-0.77227 0.53374,-1.41843 0.53381,-1.4359 8e-5,-0.0175 -0.53588,-0.18183 -1.19102,-0.36526 -2.98146,-0.83475 -4.71244,0.57721 -5.407645,4.41101 -0.456789,2.51903 -0.355119,2.5983 3.451115,2.69055 l 1.74712,0.0423 z"
       id="path142" /><path
       style="fill:#000000"
       d="m 114.82733,196.75823 c 2.79637,-0.58542 7.08722,-2.68883 7.45858,-3.65625 0.0892,-0.23237 -3.20122,-0.30844 -13.34166,-0.30844 -9.428336,0 -13.46008,0.0853 -13.460111,0.28461 -1.27e-4,0.80834 3.07645,2.59469 5.864851,3.4053 3.36297,0.97764 9.52133,1.10319 13.47834,0.27478 z"
       id="path143" /><path
       style="fill:#000000"
       d="m 129.75859,201.95351 c 2.20734,-1.00266 2.98639,-2.79599 2.69782,-6.21026 -0.38535,-4.55933 -3.12759,-8.06791 -7.05865,-9.03126 -4.3058,-1.05519 -6.75721,-0.3202 -5.70681,1.71105 0.62126,1.20138 1.51204,1.63843 3.71523,1.82285 1.09342,0.0915 1.98529,0.2557 1.98193,0.36484 -0.003,0.10914 -0.006,0.42168 -0.006,0.69453 0,0.33476 -0.24739,0.54557 -0.76068,0.64823 -0.59777,0.11956 -0.76068,0.29577 -0.76068,0.82279 0,0.36886 -0.20119,0.97771 -0.44708,1.35299 -0.5211,0.7953 -3.21947,2.60271 -4.5328,3.03615 -0.4989,0.16466 -0.9071,0.43064 -0.9071,0.59109 0,0.97255 4.8438,4.14473 6.87917,4.50514 1.67048,0.29579 3.88199,0.15688 4.90574,-0.30814 z"
       id="path144" /><path
       style="fill:#000000"
       d="m 95.600003,201.53085 c 0.864115,-0.41416 2.233334,-1.39836 3.042709,-2.18711 l 1.471588,-1.43407 -1.934653,-0.92461 c -2.586552,-1.23616 -4.283053,-2.85546 -4.283053,-4.08815 0,-0.77191 -0.122949,-0.9598 -0.79375,-1.213 -1.337054,-0.50468 -1.006036,-1.07882 0.727605,-1.26199 2.324509,-0.24561 3.377768,-0.60383 4.295175,-1.46081 0.649346,-0.60658 0.797964,-0.91901 0.659197,-1.38577 -0.339479,-1.14189 -0.8693,-1.32635 -3.372507,-1.1742 -4.001362,0.24322 -6.726305,1.99264 -8.412149,5.40062 -0.76056,1.53749 -0.898428,2.12142 -0.992434,4.20339 -0.117232,2.59638 0.146853,3.83346 1.068465,5.0051 0.915375,1.16371 1.913442,1.46112 4.57144,1.36222 1.957551,-0.0728 2.660801,-0.22258 3.952367,-0.84162 z"
       id="path145" /><path
       style="fill:#000000"
       d="m 146.10774,205.11531 c 2.78688,-0.96511 4.79229,-2.93181 5.52416,-5.41757 0.44471,-1.51042 0.37368,-4.77337 -0.14166,-6.50732 -0.67641,-2.27591 -1.3303,-3.12568 -2.98978,-3.88541 -1.32042,-0.60451 -1.71231,-0.66121 -3.76336,-0.54447 -1.52878,0.087 -3.15737,0.40504 -4.90169,0.95718 -2.11949,0.6709 -3.06059,0.82687 -4.98924,0.82687 -2.16121,0 -2.35944,0.042 -2.18336,0.46302 0.78214,1.87007 1.18587,3.78092 1.18587,5.6127 0,2.44157 -0.5025,4.04964 -1.62849,5.21137 -0.44674,0.46091 -0.74375,0.94885 -0.66003,1.08431 0.3302,0.53426 3.70932,1.96726 5.78475,2.45316 2.75983,0.64612 6.47478,0.53851 8.76283,-0.25384 z"
       id="path146" /><path
       style="fill:#000000"
       d="m 82.586459,205.21451 c 0.909064,-0.23395 2.398331,-0.77962 3.309483,-1.21261 l 1.656639,-0.78725 -0.892146,-0.84495 c -1.660532,-1.57269 -2.133641,-2.88006 -2.124965,-5.87204 0.006,-2.08159 0.130413,-2.95617 0.583223,-4.10104 0.316553,-0.80036 0.575611,-1.54451 0.575685,-1.65365 7.3e-5,-0.10914 -0.835506,-0.19843 -1.856842,-0.19843 -1.387825,0 -2.574321,-0.22954 -4.696354,-0.90857 -3.843505,-1.22987 -4.82022,-1.33773 -7.200558,-0.79516 -2.427842,0.55339 -3.44863,1.44313 -4.095521,3.56974 -1.973653,6.48826 0.713538,11.72629 6.736908,13.13195 1.797973,0.41959 5.724697,0.25869 8.004448,-0.32799 z"
       id="path147" /><path
       style="fill:#000000"
       d="m 107.39035,212.93665 c 0,-0.60115 1.29909,-1.49003 2.17765,-1.49003 0.76797,0 2.32027,0.87977 2.32027,1.31502 0,0.12136 -0.89113,0.22415 -1.98029,0.22842 -1.08915,0.004 -2.10118,0.0825 -2.24895,0.17382 -0.14778,0.0913 -0.26868,-0.0109 -0.26868,-0.22723 z"
       id="path148" /><path
       style="fill:#000000"
       d="m 111.12619,225.43981 c 2.00075,-0.6624 5.06738,-0.90403 7.16162,-0.56429 1.83895,0.29833 4.31002,-0.25385 6.86331,-1.53365 6.27677,-3.14616 10.00643,-8.38236 10.46613,-14.69377 l 0.15566,-2.13707 -1.60593,-0.60057 c -0.88325,-0.33032 -2.09297,-1.01747 -2.68825,-1.52701 l -1.08233,-0.92644 -1.70546,0.29699 c -3.76133,0.65501 -7.40979,-0.64936 -10.59829,-3.789 l -1.90909,-1.87984 -1.68462,0.33896 c -2.325,0.4678 -8.64348,0.50032 -11.04544,0.0568 -1.8512,-0.3418 -1.97135,-0.33396 -2.31665,0.15102 -0.92899,1.30482 -3.216367,3.32639 -4.563513,4.03322 -1.982605,1.04024 -3.868326,1.44695 -6.185584,1.33408 -1.77074,-0.0863 -1.989521,-0.0364 -2.902066,0.66173 -0.542821,0.41525 -1.673915,1.03329 -2.513541,1.37341 -1.843694,0.74686 -1.891946,0.92567 -1.157668,4.29002 1.461787,6.69766 5.485922,11.22699 12.279702,13.82129 2.415834,0.92252 3.364279,1.01643 5.5769,0.55219 1.89376,-0.39734 3.61531,-0.19206 5.34788,0.63769 1.63279,0.78196 2.02967,0.79203 4.10723,0.1042 z"
       id="path149" /><path
       style="fill:#000000"
       d="m 138.61118,239.74902 c 9.27233,-0.97178 16.07771,-6.1814 18.99655,-14.54213 0.57349,-1.64272 0.6953,-2.46686 0.70418,-4.76444 0.01,-2.56755 -0.0512,-2.90884 -0.80652,-4.50265 -1.52939,-3.22721 -4.42224,-5.45889 -7.914,-6.10521 -1.56225,-0.28917 -5.8478,-0.18993 -7.40833,0.17156 -1.62018,0.37531 -0.24438,-0.35506 1.78594,-0.94809 1.75701,-0.51321 2.05052,-0.68249 2.05052,-1.18266 0,-0.57866 -0.0366,-0.58347 -4.22704,-0.55676 l -4.22704,0.0269 -0.15289,1.19062 c -1.01457,7.90074 -5.92711,14.18912 -13.26439,16.97928 l -2.1599,0.82135 1.0042,1.2704 c 1.99855,2.52836 2.91061,5.21701 2.91558,8.59481 l 0.003,2.13354 2.4474,0.59413 c 2.01875,0.49007 4.19599,0.80181 7.34219,1.05127 0.21828,0.0173 1.52797,-0.0871 2.91041,-0.23196 z"
       id="path150" /><path
       style="fill:#000000"
       d="m 89.715323,239.35005 c 1.120041,-0.1964 2.519025,-0.50167 3.108855,-0.67839 1.069895,-0.32055 1.072429,-0.32447 1.077736,-1.66848 0.01459,-3.69448 1.25122,-7.30239 3.247467,-9.47458 l 0.903968,-0.98364 -1.350773,-0.43817 c -5.645617,-1.83136 -10.384579,-5.75275 -12.748441,-10.54906 -1.104568,-2.24119 -2.208378,-6.13351 -2.222648,-7.83763 l -0.0057,-0.68382 -1.653646,0.2368 c -0.909505,0.13023 -2.764808,0.15821 -4.122894,0.0622 l -2.469249,-0.17462 0.088,0.62164 c 0.07122,0.50309 0.41598,0.73455 1.80779,1.21367 0.945885,0.32561 1.838854,0.63845 1.984375,0.69518 0.145521,0.0567 -1.164167,0.0428 -2.910417,-0.0309 -4.888617,-0.20646 -7.577268,0.58232 -9.967381,2.92415 -4.212524,4.12744 -4.420862,9.93542 -0.601387,16.76527 1.065629,1.90553 3.754975,4.89772 5.656732,6.29374 5.125915,3.76276 12.320437,5.08442 20.17764,3.70671 z"
       id="path151" /><path
       style="fill:#000000"
       d="m 105.82024,229.95814 c 0.60262,-0.32251 0.66983,-1.11764 0.13218,-1.56384 -0.20877,-0.17327 -0.77432,-0.27715 -1.25677,-0.23084 -0.69968,0.0672 -0.89565,0.21505 -0.96845,0.73084 -0.15017,1.06384 1.00036,1.64863 2.09304,1.06384 z"
       id="path152" /><path
       style="fill:#000000"
       d="m 103.59489,230.01274 c -0.95657,-1.057 -0.37205,-2.16197 1.14367,-2.16197 1.12122,0 2.12262,0.62412 2.12262,1.32291 0,1.16866 -2.40816,1.78728 -3.26629,0.83906 z"
       id="path153" /><path
       style="fill:#000000"
       d="m 105.74993,236.5291 c 0.53885,-0.53885 0.36711,-1.24747 -0.34569,-1.42637 -1.60608,-0.4031 -3.21988,0.49382 -2.48398,1.38053 0.37188,0.44809 2.39466,0.48086 2.82967,0.0458 z"
       id="path154" /><path
       style="fill:#000000"
       d="m 102.74811,236.99092 c -0.35719,-0.35719 -0.64943,-0.82669 -0.64943,-1.04333 0,-0.9882 2.46873,-1.61426 3.72156,-0.94377 0.61739,0.33042 0.66203,1.24593 0.0999,2.04849 -0.59533,0.84996 -2.29355,0.81709 -3.17203,-0.0614 z"
       id="path155" /><path
       style="fill:#000000"
       d="m 101.13603,241.74139 c -0.19703,-0.51345 0.43645,-0.51825 1.11052,-0.008 0.77407,0.58547 2.10288,0.49714 2.8584,-0.19003 0.71857,-0.65357 1.87233,-4.26607 2.17593,-6.81302 0.0954,-0.80036 0.33765,-2.1053 0.53834,-2.89986 0.20068,-0.79456 0.36488,-2.00889 0.36488,-2.69851 0,-1.10728 -0.10053,-1.3285 -0.8599,-1.89225 -2.81188,-2.08753 -6.65046,-1.55421 -9.135809,1.26929 -2.937668,3.33737 -3.651824,8.9237 -1.471988,11.51429 1.215291,1.44429 4.857917,2.86067 4.419627,1.7185 z"
       id="path156" /><path
       style="fill:#000000"
       d="m 113.13134,230.56275 c 0.57417,-0.50133 0.58961,-1.33522 0.0313,-1.68926 -0.63348,-0.40169 -1.50257,-0.23773 -1.94186,0.36634 -0.39445,0.54241 -0.42495,0.54877 -0.34316,0.0716 0.11924,-0.69572 1.32304,-1.10945 2.26743,-0.77928 1.19306,0.41712 1.07729,2.49361 -0.13903,2.49361 -0.31581,0 -0.28822,-0.10193 0.12533,-0.46302 z"
       id="path157" /><path
       style="fill:#000000"
       d="m 111.08921,230.88708 c -0.51127,-0.61605 -0.14646,-0.73214 0.40071,-0.12752 0.2642,0.29193 0.35742,0.53079 0.20717,0.53079 -0.15026,0 -0.4238,-0.18147 -0.60788,-0.40327 z"
       id="path158" /><path
       style="fill:#000000"
       d="m 117.57817,243.36679 c 2.23492,-0.59523 3.75346,-1.39754 4.99501,-2.63909 1.41196,-1.41197 1.8107,-2.63229 1.79199,-5.48439 -0.0159,-2.41789 -0.67022,-4.34959 -2.26073,-6.67378 l -1.10504,-1.61476 -2.37275,-0.47785 c -2.59525,-0.52266 -3.78193,-0.46285 -6.48048,0.3266 -2.54531,0.74461 -2.58817,0.80001 -2.7549,3.56079 -0.0791,1.30969 -0.21834,3.27422 -0.30942,4.36562 l -0.1656,1.98438 0.82179,-0.77446 c 0.45198,-0.42596 0.8996,-0.69665 0.99471,-0.60154 0.0951,0.0951 -0.0227,0.24799 -0.26182,0.33974 -0.63876,0.24512 -0.55779,1.58153 0.12479,2.05963 0.94324,0.66067 2.06946,-0.0911 2.1042,-1.40467 0.0178,-0.67126 0.0203,-0.67203 0.30097,-0.0908 0.36326,0.75233 -0.26933,1.7926 -1.37456,2.2604 l -0.77581,0.32836 0.46792,1.04938 c 0.30353,0.68071 0.53778,0.93633 0.66678,0.7276 0.10937,-0.17697 0.45972,-0.31422 0.77856,-0.305 l 0.57969,0.0168 -0.59531,0.23929 c -0.7297,0.29331 -0.79085,1.27915 -0.12997,2.0953 0.56981,0.70369 1.32119,0.4987 1.55268,-0.4236 0.10739,-0.42788 -0.004,-0.83849 -0.33302,-1.22758 l -0.49438,-0.58466 0.59532,0.50403 c 0.73705,0.62404 0.76473,1.57552 0.0661,2.2741 l -0.52916,0.52917 1.38906,-0.003 c 0.76398,-0.002 1.98499,-0.16186 2.71334,-0.35584 z"
       id="path159" /><path
       style="display:none;fill:#800000"
       d="m 113.12707,245.3042 c -1.34243,-0.23663 -1.69029,-0.63839 -2.1763,-2.51354 -0.46435,-1.79158 -1.95314,-4.93342 -2.40646,-5.0784 -0.17339,-0.0555 -0.53584,0.6668 -0.85399,1.70181 -1.14526,3.72565 -2.14083,4.43721 -5.95931,4.25924 -3.293304,-0.15349 -5.25991,-1.11391 -6.808715,-3.32514 l -0.378219,-0.53998 -2.337541,0.62421 c -11.5394,3.08143 -22.74837,-0.24177 -28.604563,-8.48059 -3.348152,-4.71037 -4.830907,-10.47809 -3.74102,-14.55209 1.276666,-4.77217 5.317619,-8.47505 9.918046,-9.08829 2.685523,-0.35798 2.896539,-1.35724 0.596093,-2.82279 -1.78812,-1.13916 -3.261409,-2.9297 -4.071423,-4.94816 -0.44274,-1.10325 -0.559353,-1.95335 -0.554578,-4.04284 0.0078,-3.39584 0.612636,-5.41515 3.048212,-10.17611 4.433785,-8.66698 10.526531,-14.98405 15.829082,-16.41188 l 1.171971,-0.31558 -2.785713,-0.90088 c -4.665856,-1.50892 -9.239708,-4.09209 -12.608421,-7.12086 l -1.294363,-1.16374 -1.166528,1.19846 c -3.342832,3.43432 -8.346909,4.39199 -15.718611,3.00818 -6.451756,-1.21112 -6.575818,-1.21601 -9.506877,-0.37449 -1.583411,0.4546 -3.069512,0.47986 -3.974424,0.0676 -0.84911,-0.38688 -0.858132,-1.01514 -0.02581,-1.79707 1.627414,-1.52888 2.445367,-5.01521 2.007497,-8.55648 -0.332717,-2.69085 -1.453287,-5.05725 -3.722083,-7.86023 -1.907137,-2.35618 -3.852025,-5.2475 -5.947843,-8.84223 -2.134311,-3.66076 -4.52475,-6.03041 -7.789419,-7.72169 -1.375341,-0.7125 -2.542721,-1.43408 -2.594176,-1.60351 -0.05146,-0.16943 0.430494,-0.6686 1.070999,-1.10928 0.640505,-0.44068 2.357769,-2.20706 3.81614,-3.92529 4.373167,-5.15238 6.810957,-7.16144 11.610198,-9.56831 3.714847,-1.86303 6.665502,-2.67433 10.426768,-2.86687 5.081031,-0.26011 9.054799,0.85492 12.209816,3.42606 0.822456,0.67025 1.566596,1.14741 1.653646,1.06036 0.08705,-0.0871 0.158272,-0.71814 0.158272,-1.40243 0,-0.68429 0.184304,-2.30156 0.409564,-3.59393 1.474143,-8.45751 5.772708,-15.567324 12.753457,-21.094198 1.055026,-0.835296 1.918229,-1.574796 1.918229,-1.643333 0,-0.06854 -0.141893,-0.35182 -0.315319,-0.629519 -0.327115,-0.523794 -0.257799,-0.86168 0.681977,-3.324371 0.251455,-0.658939 0.408248,-1.974803 0.415479,-3.486831 0.01267,-2.649843 0.212109,-3.087699 1.539166,-3.379169 0.915821,-0.201148 2.637671,0.38627 4.176564,1.424856 l 1.16268,0.784683 0.437353,-0.921651 c 0.240544,-0.506909 0.919602,-1.334439 1.509018,-1.838958 0.922049,-0.789239 1.261919,-0.917305 2.434408,-0.917305 0.928915,0 1.777109,0.210222 2.664354,0.660351 0.715887,0.363193 1.331378,0.660849 1.367758,0.661458 0.03638,6.09e-4 0.06615,-0.718011 0.06615,-1.596933 0,-2.389161 1.262189,-4.397457 3.366268,-5.35614 0.449856,-0.204968 0.602482,-0.495828 0.602482,-1.148156 0,-1.63617 1.046288,-3.826379 2.54281,-5.322901 1.410899,-1.4109 3.936579,-2.82913 5.593129,-3.140681 0.85177,-0.160195 0.8599,-0.17611 0.8599,-1.684096 0,-1.143198 0.13762,-1.697325 0.55253,-2.224799 2.26405,-2.878272 6.7152,-1.3025 6.5466,2.31759 l -0.0601,1.289652 1.66896,0.627412 c 3.77497,1.41913 6.42807,4.401793 7.03225,7.905784 0.15228,0.883145 0.38548,1.189725 1.40877,1.852084 1.80734,1.169852 2.81381,2.953861 2.87766,5.100736 0.0279,0.936842 0.11762,1.770321 0.19948,1.852176 0.0819,0.08186 0.41963,-0.105587 0.75063,-0.416537 0.72002,-0.676425 2.5968,-1.377 3.68886,-1.377 1.70779,0 3.517,1.411791 3.83282,2.990881 0.0832,0.415782 0.22369,0.651331 0.31229,0.523442 0.63869,-0.92188 3.14164,-1.97974 4.68416,-1.97974 1.3953,0 1.59856,0.330845 1.77992,2.897075 0.0937,1.325783 0.4473,3.18842 0.82741,4.358461 0.61858,1.904088 0.64289,2.763031 0.0888,3.137932 -0.12526,0.08475 0.63996,0.819486 1.70049,1.632743 7.94923,6.095776 12.77324,14.869172 13.59523,24.725552 l 0.18048,2.16409 1.4846,-1.21389 c 1.90312,-1.5561 4.60692,-2.85252 7.11112,-3.40965 1.52426,-0.33912 2.77074,-0.40759 5.45086,-0.29944 4.10152,0.16551 6.12019,0.67599 10.10369,2.555 4.65247,2.19456 8.193,5.09737 12.44576,10.204 1.21188,1.45521 2.74454,3.00302 3.40591,3.43958 1.77014,1.16846 1.5788,1.60002 -1.34902,3.04271 -4.06837,2.00469 -5.38748,3.40549 -8.99716,9.55431 -1.07732,1.83513 -3.00614,4.66155 -4.28628,6.28092 -3.43959,4.35111 -4.26734,6.32412 -4.27318,10.18551 -0.004,2.66315 0.5627,4.57906 1.86861,6.31706 0.57307,0.76269 1.00205,1.50799 0.95327,1.65623 -0.1365,0.41484 -1.28709,0.92273 -2.10022,0.92707 -0.40172,0.002 -1.83047,-0.24271 -3.175,-0.54411 -2.73895,-0.614 -3.44907,-0.57945 -8.53001,0.41508 -4.43467,0.86803 -6.58973,1.02605 -9.02728,0.66191 -2.67587,-0.39974 -4.99256,-1.50259 -6.91472,-3.29172 l -1.51323,-1.40852 -2.1006,1.85404 c -3.89659,3.43923 -7.36428,5.24795 -13.90449,7.25246 -0.21307,0.0653 0.56083,0.5027 1.71979,0.97199 5.55664,2.25003 9.99424,6.89445 14.15326,14.81286 4.36537,8.31128 4.70985,14.35086 1.05534,18.5026 -0.55215,0.62727 -1.61666,1.42749 -2.36559,1.77827 -0.91313,0.42769 -1.31504,0.7593 -1.2201,1.00671 0.0779,0.20292 0.14158,0.57872 0.14158,0.83512 0,0.37439 0.44799,0.55421 2.27512,0.9132 2.78146,0.54651 4.34371,1.31157 6.26629,3.0687 5.91253,5.40372 5.01862,15.07005 -2.1052,22.76463 -3.69108,3.98681 -8.84638,6.43685 -15.09481,7.17377 -3.04744,0.3594 -7.5089,-1.4e-4 -11.05286,-0.89073 l -2.38125,-0.5984 -1.5875,1.6166 c -1.79476,1.82767 -3.45056,2.75994 -5.95313,3.35181 -2.27769,0.53869 -3.62127,0.66247 -4.84661,0.44648 z"
       id="path160" /></g><g
     inkscape:label="Layer 1 copy"
     inkscape:groupmode="layer"
     id="g240"
     style="display:inline"><path
       id="ganesha-crown"
       style="fill:#d4aa00"
       d="m 109.22124,55.769206 c -0.11426,-4.9e-4 -0.22512,0.0088 -0.33021,0.02894 -1.52683,0.291872 -2.01696,2.500052 -0.70694,3.185335 0.72828,0.380968 2.21813,0.263312 2.8019,-0.221175 0.39137,-0.324804 0.48764,-1.22611 0.20877,-1.952853 -0.21392,-0.557448 -1.17367,-1.036816 -1.97352,-1.040247 z m 0.11265,4.947501 c -3.31532,0.0026 -6.67195,1.015092 -8.62841,2.939356 -1.068938,1.051353 -2.310969,3.249361 -2.310969,4.089156 0,0.490743 0.06288,0.496906 1.389062,0.143144 0.828977,-0.221132 3.522717,-0.437719 6.680727,-0.537435 4.82155,-0.152242 10.33672,0.111507 12.67468,0.606164 0.75243,0.159196 0.76456,0.143983 0.59273,-0.735872 -0.25768,-1.319514 -1.97099,-3.64387 -3.41426,-4.631242 -1.85101,-1.266315 -4.40497,-1.875282 -6.98356,-1.873271 z m -0.078,7.886857 -1.26349,0.867131 c -0.69485,0.476949 -2.00516,1.199193 -2.91145,1.60507 -0.98053,0.439126 -1.91295,1.085815 -2.3027,1.596802 -0.9035,1.184554 -1.32532,2.976208 -0.98805,4.197676 0.14609,0.52909 0.2082,0.961699 0.13746,0.961699 -0.0707,0 -0.50777,-0.28611 -0.971,-0.63562 -1.55352,-1.172134 -4.066214,-1.546915 -5.477703,-0.817005 -1.115638,0.576919 -1.400245,1.278679 -1.192692,2.939872 0.161768,1.294755 0.131279,1.423169 -0.337448,1.423169 -0.362624,0 -0.740534,-0.450546 -1.275891,-1.521354 -2.051377,-4.103123 -6.676272,-3.82152 -6.772713,0.412378 -0.01743,0.765347 -0.157643,1.387614 -0.316776,1.405082 -0.718527,0.07887 -1.152465,-0.143722 -2.137854,-1.096574 -1.062927,-1.027827 -3.039024,-2.093426 -3.902605,-2.104264 -0.400128,-0.005 -0.46302,0.262497 -0.46302,1.968872 0,1.365805 -0.313189,6.047591 -0.687814,6.998023 l 16.695105,-2.341459 c 6.180221,-0.414417 29.964921,-0.254632 33.602081,0.225826 1.30969,0.173004 3.69094,0.492808 5.29167,0.71055 1.60072,0.217742 3.84708,0.468493 4.99194,0.557072 l 2.08153,0.160714 -0.18604,-0.636654 c -0.10225,-0.350306 -0.42509,-1.292014 -0.71778,-2.092378 -0.29269,-0.800363 -0.59752,-2.383455 -0.67748,-3.518132 l -0.14573,-2.062923 -0.82114,0.178284 c -1.46935,0.319429 -1.86681,0.559649 -3.19877,1.932698 -0.72208,0.74435 -1.40539,1.353406 -1.51825,1.353406 -0.11286,0 -0.20516,-0.420313 -0.20516,-0.93431 0,-1.747389 -1.15016,-3.514799 -2.56676,-3.943945 -1.7126,-0.518813 -4.15403,1.27996 -4.47673,3.29799 -0.151,0.94431 -0.24572,1.051098 -0.93276,1.051098 -0.68439,0 -0.74734,-0.06967 -0.59842,-0.663008 0.26045,-1.03773 -0.10562,-2.388693 -0.84801,-3.131075 -1.29426,-1.294257 -4.33283,-1.181213 -6.41718,0.238745 l -0.96118,0.65474 -0.15244,-1.658296 c -0.25976,-2.829747 -1.25859,-4.063165 -5.06636,-6.252849 z m -4.72426,0.26355 c -1.94101,0.02578 -5.185513,0.537397 -6.356714,1.046965 -2.395825,1.042378 -4.013708,2.890728 -4.013708,4.584733 0,0.805013 0.128703,0.827515 1.478462,0.26355 1.043569,-0.436031 3.125157,-0.350457 4.093807,0.167948 0.381103,0.203959 0.498873,0.06322 0.736393,-0.88005 0.49994,-1.985457 2.01991,-3.366889 5.20071,-4.726326 l 0.79375,-0.338997 -1.19062,-0.09819 c -0.21426,-0.01758 -0.46479,-0.02332 -0.74208,-0.01964 z m 9.53689,0.0098 c -0.13815,6.11e-4 -0.26959,0.0043 -0.39326,0.01137 l -1.39009,0.0801 1.21077,0.596863 c 2.45529,1.209926 3.98492,2.945747 4.36046,4.947501 l 0.16175,0.860413 0.96997,-0.346232 c 0.53351,-0.190555 1.79419,-0.351731 2.80138,-0.358118 1.34505,-0.0085 1.95971,0.104705 2.3151,0.426331 0.45059,0.407772 0.48369,0.406903 0.48369,-0.0088 0,-1.545445 -1.69941,-3.913226 -3.44268,-4.796607 -1.42495,-0.722077 -5.00477,-1.422 -7.07709,-1.412833 z" /><path
       id="ganesha-ears-left"
       style="fill:none;stroke:#222b00"
       d="M 49.023881 111.80144 C 47.587435 111.78924 46.093641 111.94206 44.551803 112.26188 C 40.989777 113.00074 38.072441 114.25349 34.497636 116.57996 C 31.707303 118.39592 29.807521 120.17017 26.696562 123.86427 C 25.284813 125.54066 23.920926 127.08519 23.665739 127.29662 C 23.224779 127.66196 23.2256 127.68999 23.690027 127.8568 C 24.457608 128.13246 26.915228 127.8558 28.938285 127.26562 C 31.369345 126.55672 32.164277 126.12478 35.159094 123.88649 C 40.804303 119.66733 45.804137 118.29168 51.034094 119.51829 C 54.476421 120.32564 58.821567 123.15361 60.991109 125.99851 C 61.536031 126.71306 62.021226 127.25817 62.06908 127.21032 C 62.11693 127.16242 62.04129 126.30224 61.901131 125.2983 C 61.760978 124.29433 61.564562 122.10335 61.464465 120.42986 L 61.282048 117.38715 L 60.157568 116.29626 C 57.127052 113.35739 53.333219 111.83792 49.023881 111.80144 z M 47.463253 120.47223 C 43.671905 120.38923 40.312817 121.68815 35.820553 124.92674 C 32.519767 127.30637 30.664274 128.25392 28.133683 128.85105 L 26.151375 129.31872 L 27.360087 130.22409 C 28.941732 131.40917 31.18499 134.35228 33.508032 138.28923 C 34.538423 140.03548 36.403917 142.81404 37.653516 144.46353 C 38.903113 146.11305 40.21837 147.96253 40.576335 148.57336 C 42.745927 152.27549 43.023024 157.59007 41.244511 161.39067 C 40.458259 163.07084 40.456292 163.0884 41.045557 162.94716 C 41.373299 162.86856 42.621554 162.59812 43.819548 162.34616 C 45.953788 161.89729 46.073861 161.90003 49.772673 162.49086 C 57.707716 163.75837 62.600714 162.20482 65.790816 157.40538 L 66.450208 156.41371 L 65.759294 154.32391 C 64.78557 151.37774 64.491649 148.31219 64.798112 144.29714 C 65.098045 140.36762 64.947141 139.19484 63.460209 133.90035 C 62.238927 129.55178 61.610777 128.4497 58.713729 125.5758 C 55.501184 122.3889 52.168371 120.77797 48.227547 120.50737 C 47.970482 120.48977 47.71601 120.47773 47.463253 120.47223 z " /><path
       id="ganesha-ears-right"
       style="fill:none;stroke:#222b00"
       d="M 170.31467 111.75855 C 167.59965 111.76755 165.01468 112.32472 162.72753 113.46904 C 161.91048 113.87784 160.37692 115.03091 159.31947 116.03168 L 157.39659 117.8512 L 157.39659 120.61124 C 157.39659 122.12921 157.26836 124.19946 157.11134 125.21148 C 156.95432 126.2235 156.86502 127.16219 156.9129 127.29766 C 156.9608 127.43314 157.5355 126.87103 158.19034 126.04864 C 161.59382 121.77436 166.87106 119.11469 171.94868 119.11469 C 175.98587 119.11469 179.36161 120.46105 184.37066 124.06891 C 187.41154 126.25917 189.05441 127.08712 191.26326 127.5426 C 193.34659 127.9722 196.02576 128.21099 196.02576 127.96687 C 196.02576 127.66126 189.64787 120.45398 188.32442 119.26404 C 182.88877 114.37672 176.28771 111.73958 170.31467 111.75855 z M 171.94868 120.43761 C 166.85484 120.43761 161.61906 123.38538 157.9702 128.30741 C 156.82416 129.85332 156.5034 130.57649 155.70781 133.40529 C 154.47132 137.80186 154.16101 140.41612 154.52442 143.37368 C 154.68147 144.6518 154.75633 147.00725 154.69133 148.60798 C 154.59403 151.00362 154.42276 151.95335 153.72085 153.97613 L 152.86767 156.43335 L 153.40717 157.30616 C 154.28273 158.72285 156.7567 160.89005 158.31075 161.60151 C 161.37025 163.00218 164.70647 163.32329 168.67291 162.59886 C 171.8816 162.01283 174.86754 162.01909 176.91685 162.61695 C 177.83032 162.88342 178.64244 163.03695 178.72139 162.95801 C 178.80029 162.87911 178.61762 162.3302 178.31573 161.73845 C 176.47225 158.12492 176.56031 152.97242 178.53174 149.06842 C 178.95352 148.23317 180.3006 146.26878 181.52535 144.70331 C 182.75013 143.13784 184.33102 140.87565 185.03832 139.67623 C 187.65481 135.23922 189.01659 133.31514 190.80644 131.52531 C 191.8155 130.51625 192.74768 129.69028 192.87815 129.69028 C 193.00862 129.69028 193.11534 129.57121 193.11534 129.42569 C 193.11534 129.28017 192.83027 129.16111 192.48179 129.16111 C 191.43427 129.16111 188.41719 128.12707 186.95035 127.2651 C 186.19374 126.82049 184.47049 125.68796 183.12061 124.74846 C 178.69545 121.66865 175.50534 120.43761 171.94868 120.43761 z " /><path
       id="ganesha-body"
       style="fill:none;stroke:#222b00"
       d="m 128.99316,170.96631 c -0.16717,4.4e-4 -1.49449,0.22932 -2.94969,0.50849 -3.1149,0.59758 -8.75762,1.34256 -10.16682,1.34256 -0.90664,0 -1.25235,0.25796 -4.11241,3.06286 -1.71753,1.68441 -2.95809,3.03935 -2.75642,3.01119 0.79835,-0.11148 1.0677,0.048 1.59732,0.94567 0.38007,0.64418 1.05471,1.18342 2.17402,1.7384 2.41849,1.19915 4.24812,2.68675 4.88291,3.96978 0.43659,0.88244 0.59417,1.02686 0.73122,0.66973 0.26503,-0.69067 2.06518,-1.49189 3.34036,-1.48673 1.01853,0.004 4.01159,0.5327 5.26067,0.92914 0.39433,0.12516 0.31693,-0.15958 -0.43409,-1.60042 -1.01717,-1.95146 -1.15724,-3.26487 -0.51314,-4.80642 0.53124,-1.27145 0.76362,-0.95135 0.68626,0.94413 -0.0699,1.71347 0.29675,2.81868 1.63297,4.92269 0.83452,1.31403 3.5877,4.35452 3.9517,4.36408 0.10402,0.003 0.33276,-0.26324 0.5085,-0.59066 0.4726,-0.88051 0.61397,-5.71837 0.23564,-8.06359 -0.17998,-1.11567 -0.54902,-2.72227 -0.8201,-3.57085 -0.63812,-1.99746 -2.85577,-6.29109 -3.2489,-6.29005 z m -41.115837,0.006 c -2.388998,0.0156 -4.937829,1.05672 -7.856368,3.20911 l -1.837097,1.35444 1.175639,0.4656 c 0.646631,0.25601 1.235171,0.47488 1.307931,0.48628 0.07276,0.0114 0.845307,-0.57192 1.716691,-1.29656 0.947675,-0.78809 2.329861,-1.60469 3.439583,-2.03192 2.2515,-0.86681 3.045809,-1.34353 3.045809,-1.82728 0,-0.24821 -0.320137,-0.36405 -0.992188,-0.35967 z m 43.420087,0.003 c -0.1242,3.8e-4 -0.20876,0.017 -0.24391,0.0522 -0.0519,0.0519 0.47121,1.22158 1.1622,2.59932 2.12165,4.23035 3.06539,10.05621 2.36575,14.60325 l -0.19327,1.25677 h 1.42162 c 0.78187,0 2.8333,-0.37167 4.55889,-0.82631 4.00796,-1.056 6.58957,-1.15115 8.28218,-0.30541 0.64691,0.32324 1.20458,0.55916 1.23921,0.52452 0.0733,-0.0733 -0.82422,-1.87443 -2.33423,-4.68447 -1.15478,-2.14897 -3.39603,-5.38715 -4.7749,-6.89829 -1.65443,-1.81311 -4.41103,-3.91808 -6.33398,-4.83743 -1.46459,-0.70021 -4.28011,-1.48683 -5.14956,-1.48414 z m -52.548212,5.81256 c -0.448048,-0.002 -0.151642,0.9448 0.512631,1.63814 0.722912,0.75456 1.141015,0.93755 1.141015,0.4992 0,-0.13362 0.07053,-0.42637 0.15658,-0.65061 0.104718,-0.2729 -0.135883,-0.58595 -0.727604,-0.94671 -0.486231,-0.29644 -0.973481,-0.53947 -1.082622,-0.54002 z m -1.827795,0.46509 -0.920874,0.89142 c -1.323594,1.2815 -3.799999,4.99597 -5.221387,7.83156 -0.673282,1.34316 -1.224214,2.48555 -1.224214,2.53886 0,0.0533 0.625078,-0.11899 1.389062,-0.38292 1.973737,-0.68186 4.207491,-0.62228 6.982003,0.18604 3.123998,0.91014 5.387268,1.35982 5.387268,1.07022 0,-0.0544 -0.488207,-0.61993 -1.085205,-1.25677 -1.392091,-1.48503 -2.35102,-3.53293 -2.548165,-5.44308 -0.124576,-1.20703 -0.298931,-1.62947 -0.871781,-2.1115 -0.393841,-0.33139 -0.979285,-1.21484 -1.301213,-1.96319 z m 31.486967,1.90479 c -0.18436,-0.005 -0.98066,0.3204 -1.92805,0.79634 -1.08274,0.54394 -3.13656,1.38883 -4.56406,1.8774 -2.519874,0.86244 -2.720916,0.88821 -6.895187,0.89814 -2.743693,0.007 -4.267891,0.10608 -4.212146,0.27492 0.04805,0.14552 0.554061,0.58741 1.12448,0.98185 0.570417,0.39444 1.005591,0.84681 0.966866,1.00511 -0.04771,0.19504 0.250806,0.22293 0.926041,0.0873 1.804925,-0.36253 4.279555,-0.22714 4.767151,0.26045 0.565979,0.56598 0.514661,0.57892 1.283126,-0.33435 0.900519,-1.07021 3.629139,-2.96398 5.476669,-3.80132 1.68366,-0.76307 3.09542,-1.68546 3.09542,-2.02261 0,-0.0148 -0.014,-0.0225 -0.0403,-0.0233 z m 13.54646,7.07502 c -2.05282,0.0106 -2.98609,0.7946 -2.26394,2.19108 0.62125,1.20138 1.51234,1.63821 3.71553,1.82263 1.09342,0.0915 1.98515,0.2557 1.98179,0.36484 -0.003,0.10914 -0.006,0.42168 -0.006,0.69453 0,0.33476 -0.24739,0.54588 -0.76068,0.64854 -0.59777,0.11956 -0.76067,0.29567 -0.76067,0.82269 0,0.36886 -0.20111,0.97761 -0.447,1.35289 -0.5211,0.7953 -3.21922,2.60255 -4.53254,3.03599 -0.4989,0.16466 -0.90744,0.43072 -0.90744,0.59117 0,0.97255 4.8438,4.14475 6.87916,4.50516 1.67048,0.29579 3.8819,0.15702 4.90565,-0.308 2.20734,-1.00265 2.98659,-2.7962 2.69802,-6.21047 -0.38535,-4.55932 -3.12794,-8.06762 -7.059,-9.03097 -1.34556,-0.32975 -2.50958,-0.4849 -3.44268,-0.48008 z m -25.330754,0.12299 c -0.34235,7.7e-4 -0.742461,0.0175 -1.211812,0.046 -4.001358,0.24322 -6.726047,1.99272 -8.41189,5.4007 -0.760559,1.53749 -0.898698,2.12139 -0.992704,4.20336 -0.117232,2.59638 0.147058,3.83374 1.068669,5.00538 0.915374,1.16371 1.913302,1.46109 4.571297,1.36219 1.957549,-0.0728 2.660649,-0.22277 3.952213,-0.84181 0.864115,-0.41416 2.233335,-1.3982 3.042709,-2.18695 l 1.471742,-1.43402 -1.934763,-0.925 c -2.586549,-1.23616 -4.282943,-2.85544 -4.282943,-4.08813 0,-0.77191 -0.122949,-0.95964 -0.79375,-1.21284 -1.337052,-0.50468 -1.006035,-1.07877 0.727604,-1.26194 2.324507,-0.24561 3.377939,-0.60392 4.295345,-1.46089 0.649346,-0.60658 0.797642,-0.91921 0.658875,-1.38597 -0.275826,-0.92778 -0.677072,-1.2234 -2.160592,-1.22008 z m -22.372277,2.17455 c -0.723055,-0.004 -1.418345,0.10763 -2.310971,0.31109 -2.427839,0.55339 -3.448983,1.4432 -4.095874,3.56981 -1.973651,6.48825 0.713693,11.72635 6.737057,13.13201 1.797971,0.41959 5.724931,0.25854 8.004679,-0.32814 0.909063,-0.23395 2.398208,-0.77934 3.309359,-1.21233 l 1.656746,-0.78755 -0.892452,-0.84491 c -1.66053,-1.57269 -2.13361,-2.88002 -2.124934,-5.87199 0.006,-2.08159 0.130617,-2.95618 0.583426,-4.10104 0.316553,-0.80036 0.575602,-1.54451 0.575676,-1.65365 7.3e-5,-0.10914 -0.835399,-0.19844 -1.856734,-0.19844 -1.387824,0 -2.574324,-0.22944 -4.696354,-0.90847 -2.402189,-0.76867 -3.684533,-1.09916 -4.889624,-1.10639 z m 71.752721,0.1819 c -0.3458,0.002 -0.75486,0.0199 -1.26762,0.0491 -1.52878,0.087 -3.15719,0.40491 -4.90151,0.95705 -2.11949,0.6709 -3.06071,0.82682 -4.98936,0.82682 -2.16121,0 -2.35941,0.042 -2.18333,0.46302 0.78214,1.87007 1.18598,3.78132 1.18598,5.6131 0,2.44156 -0.50234,4.04932 -1.62833,5.21105 -0.44674,0.46091 -0.74414,0.94871 -0.66042,1.08417 0.3302,0.53426 3.70975,1.9677 5.78517,2.4536 2.75983,0.64612 6.47473,0.5381 8.76278,-0.25425 2.78687,-0.96511 4.79234,-2.93148 5.52421,-5.41724 0.44471,-1.51042 0.37374,-4.77367 -0.1416,-6.50761 -0.6764,-2.27591 -1.33052,-3.12531 -2.98999,-3.88504 -0.99032,-0.45338 -1.45858,-0.59873 -2.49598,-0.59376 z m -29.82091,9.37359 -1.68466,0.33899 c -2.32499,0.4678 -8.64336,0.50037 -11.04532,0.0568 -1.85119,-0.3418 -1.97135,-0.33409 -2.31665,0.15089 -0.92899,1.30482 -3.216402,3.32652 -4.563547,4.03335 -1.982603,1.04024 -3.868413,1.44715 -6.185669,1.33428 -1.770738,-0.0863 -1.989604,-0.0367 -2.902148,0.66146 -0.54282,0.41525 -1.673916,1.03344 -2.513542,1.37356 -1.843692,0.74686 -1.891829,0.92583 -1.157552,4.29018 1.461786,6.69765 5.486098,11.22656 12.279871,13.82086 2.415831,0.92252 3.364302,1.01666 5.576917,0.55242 1.89376,-0.39734 3.61491,-0.19206 5.34748,0.63769 1.63279,0.78196 2.02969,0.79222 4.10724,0.10439 2.00075,-0.6624 5.0676,-0.90405 7.16184,-0.56431 1.83895,0.29833 4.30986,-0.25396 6.86315,-1.53376 6.27676,-3.14615 10.00633,-8.38227 10.46603,-14.69367 l 0.15606,-2.13734 -1.60611,-0.60048 c -0.88324,-0.33032 -2.09292,-1.0175 -2.6882,-1.52704 l -1.08262,-0.92656 -1.70533,0.29714 c -3.76132,0.65501 -7.40982,-0.64928 -10.59832,-3.78891 z m -34.457849,8.95139 -1.653646,0.23668 c -0.909504,0.13023 -2.764661,0.15802 -4.122746,0.062 l -2.469616,-0.17467 0.08837,0.62167 c 0.07122,0.50309 0.415833,0.73476 1.807642,1.21388 0.945884,0.32561 1.838854,0.63832 1.984375,0.69505 0.145521,0.0567 -1.164169,0.0427 -2.910417,-0.031 -4.888612,-0.20646 -7.577239,0.58254 -9.96735,2.92437 -4.21252,4.12744 -4.420985,9.93554 -0.601514,16.76539 1.065628,1.90552 3.755264,4.89765 5.657019,6.29367 5.12591,3.76275 12.320385,5.08446 20.17758,3.70675 1.12004,-0.1964 2.519025,-0.50179 3.108854,-0.67851 1.069894,-0.32055 1.072147,-0.32463 1.077454,-1.66864 0.01459,-3.69447 1.251619,-7.30216 3.247864,-9.47435 l 0.90382,-0.98392 -1.350821,-0.43822 c -5.645612,-1.83136 -10.384717,-5.7524 -12.748576,-10.54871 -1.104567,-2.24119 -2.208334,-6.13364 -2.222604,-7.83776 z m 62.494889,0.27647 c -0.59271,-0.006 -1.38066,-0.001 -2.42827,0.006 l -4.22713,0.0269 -0.15245,1.19063 c -1.01457,7.90073 -5.92755,14.18917 -13.26482,16.97932 l -2.15956,0.82114 1.00407,1.27073 c 1.99855,2.52835 2.91062,5.21702 2.91559,8.59482 l 0.003,2.1332 2.44739,0.59428 c 2.01875,0.49007 4.19599,0.80164 7.34219,1.0511 0.21828,0.0173 1.52798,-0.0867 2.91042,-0.23151 9.27232,-0.97178 16.07793,-6.18154 18.99677,-14.54226 0.57349,-1.64272 0.69495,-2.46699 0.70383,-4.76457 0.01,-2.56755 -0.0508,-2.90876 -0.80615,-4.50257 -1.52939,-3.22721 -4.42249,-5.45873 -7.91424,-6.10505 -1.56225,-0.28917 -5.84781,-0.18993 -7.40834,0.17156 -1.62018,0.37531 -0.24438,-0.35523 1.78594,-0.94826 1.75701,-0.51321 2.05052,-0.6827 2.05052,-1.18287 0,-0.434 -0.0207,-0.54503 -1.79886,-0.56224 z m -40.67245,18.65829 c -1.93164,-0.008 -3.884204,0.86138 -5.359878,2.53783 -2.937665,3.33737 -3.651579,8.92344 -1.471745,11.51403 1.21529,1.44428 4.857663,2.86092 4.419373,1.71875 v -5.1e-4 c -0.19703,-0.51345 0.43645,-0.518 1.11052,-0.008 0.77407,0.58546 2.10271,0.497 2.85823,-0.19017 0.71856,-0.65357 1.87249,-4.26608 2.17609,-6.81302 0.0954,-0.80036 0.33778,-2.10553 0.53847,-2.90009 0.20068,-0.79456 0.36483,-2.00892 0.36483,-2.69854 0,-1.10728 -0.10052,-1.32812 -0.85989,-1.89187 -1.14233,-0.84806 -2.45435,-1.26352 -3.776,-1.26866 z m 12.23646,0.1664 c -1.08097,0.009 -2.1206,0.22204 -3.63853,0.66611 -2.54531,0.74461 -2.58814,0.79973 -2.75487,3.5605 -0.0791,1.30969 -0.21847,3.27423 -0.30955,4.36563 l -0.16536,1.98437 0.82165,-0.77463 c 0.45198,-0.42596 0.89967,-0.69662 0.99478,-0.60151 0.0951,0.0951 -0.0229,0.24828 -0.262,0.34003 -0.63876,0.24512 -0.55753,1.58121 0.12505,2.05931 0.94324,0.66067 2.06953,-0.091 2.10427,-1.40457 0.0178,-0.67126 0.0201,-0.67166 0.30075,-0.0904 0.36326,0.75233 -0.26936,1.79253 -1.37459,2.26032 l -0.77566,0.32815 0.46767,1.04955 c 0.30353,0.68071 0.53814,0.93633 0.66714,0.7276 0.10937,-0.17697 0.45941,-0.31411 0.77825,-0.30489 l 0.57981,0.0165 -0.59531,0.23926 c -0.7297,0.29331 -0.79111,1.27933 -0.13023,2.09548 0.56981,0.70369 1.32139,0.49855 1.55288,-0.42375 0.10739,-0.42788 -0.004,-0.83822 -0.3328,-1.22731 l -0.49454,-0.58498 0.59531,0.50436 c 0.73705,0.62404 0.76478,1.57519 0.0662,2.27377 l -0.52917,0.52916 1.38906,-0.003 c 0.76398,-0.002 1.98518,-0.16155 2.71353,-0.35553 v -5.2e-4 c 2.23492,-0.59523 3.7535,-1.39705 4.99505,-2.6386 1.41196,-1.41197 1.81033,-2.63232 1.79162,-5.48442 -0.0159,-2.41789 -0.66982,-4.34982 -2.26033,-6.67401 l -1.10536,-1.61489 -2.37246,-0.47749 c -1.13542,-0.22866 -2.00144,-0.34615 -2.84221,-0.33951 z" /><path
       style="display:inline;fill:none;stroke:#222b00"
       d="m 118.97364,156.86662 c 0.14253,-0.40465 0.30397,-0.45328 0.59258,-0.45328 0.22955,0 0.36058,0.0453 0.43422,0.25028 0.0737,0.20502 0.0899,0.56979 0.0899,1.20881 0,0.68111 0.0143,1.05459 0.1289,1.31898 0.11462,0.26438 0.3296,0.41967 0.731,0.66441 0.79303,0.48353 1.56715,0.60693 2.20586,0.40672 0.63871,-0.2002 1.14201,-0.72402 1.39341,-1.53492 0.32413,-1.04549 0.48233,-1.79489 0.47102,-2.45751 -0.0113,-0.66261 -0.19212,-1.23845 -0.54602,-1.93682 -0.36615,-0.72254 -0.58066,-1.32219 -0.6438,-1.80103 -0.0631,-0.47884 0.0251,-0.83686 0.26435,-1.07615 0.11218,-0.11218 0.22277,-0.1175 0.35751,0.008 0.13474,0.12549 0.29362,0.38181 0.50238,0.79293 0.78343,1.54283 1.99348,2.18446 3.99892,2.12051 0.87313,-0.0278 1.7661,-0.0872 1.98438,-0.1319 0.71284,-0.14598 0.67757,0.37875 -0.0626,0.93137 -0.4867,0.36337 -1.26731,0.57907 -2.38125,0.65799 -1.80023,0.12754 -2.04092,0.30367 -2.05584,1.50437 -0.0143,1.14903 -0.85217,2.82368 -1.82046,3.63844 -0.54246,0.45644 -1.112,0.73798 -1.7177,0.84621 -0.60571,0.10824 -1.24757,0.0432 -1.93467,-0.19354 l -0.54612,-0.18816 -0.54612,-0.18815 -0.22605,0.80561 -0.22604,0.80562 c -0.28045,0.99951 -0.7936,2.43109 -1.34191,3.80114 -0.5483,1.37005 -1.13177,2.67858 -1.55286,3.43199 l -0.3162,0.56573 -0.31619,0.56573 0.48678,-0.002 0.48678,-0.002 c 2.39711,-0.0119 11.79692,-1.65831 15.66334,-2.74343 10.6973,-3.00223 17.18572,-8.05322 19.75133,-15.37569 0.713,-2.03495 0.73777,-2.27497 0.64168,-6.2177 -0.21152,-8.67793 -0.20191,-8.82766 0.84023,-13.09688 1.44619,-5.9244 1.80475,-8.48334 1.96491,-14.02291 0.32067,-11.09171 -1.98569,-18.47297 -7.87661,-25.208289 -1.12359,-1.284656 -2.85965,-3.003942 -3.85789,-3.820636 -2.49107,-2.038022 -5.29516,-3.190887 -5.73488,-3.432913 -17.17572,-2.619084 -44.432224,-2.655894 -54.114091,-0.619247 -1.059034,0.222774 -3.873537,0.934212 -4.314173,0.934212 -0.580385,0 -1.468772,0.503158 -3.223849,1.825898 -7.45926,5.621786 -11.958202,13.027255 -13.116097,21.589725 -0.998992,7.38739 -0.348457,15.35967 1.907377,23.37482 l 1.091242,3.87726 -0.06603,5.86524 c -0.07598,6.74907 0.147246,8.19164 1.794991,11.59979 2.968962,6.1409 10.963723,10.97119 21.742623,13.13649 l 1.464882,0.29428 1.464882,0.29427 0.254741,-0.32304 0.254742,-0.32304 c 0.349037,-0.44262 0.980948,-1.6168 1.551004,-2.8044 0.570055,-1.18759 1.078256,-2.38859 1.179876,-2.88483 0.07063,-0.34491 0.0861,-0.56128 0.0092,-0.73141 -0.07691,-0.17012 -0.246191,-0.294 -0.545055,-0.45395 -0.559908,-0.29965 -1.301257,-1.0067 -1.999581,-1.85005 -0.698324,-0.84335 -1.353623,-1.82301 -1.74143,-2.66788 -0.349861,-0.7622 -0.534036,-1.15138 -0.761653,-1.35005 -0.487154,-0.4252 -1.136104,0.0785 -2.861581,-0.62078 -0.588147,-0.23836 -1.059431,-0.53992 -1.138101,-0.79293 -0.02829,-0.091 0.123274,-0.15978 0.441084,-0.20451 0.31781,-0.0447 0.801869,-0.0654 1.438579,-0.0601 1.740268,0.0145 2.047612,-0.0587 2.676458,-0.64501 0.428161,-0.39922 0.79138,-0.87134 1.04756,-1.33944 0.256179,-0.4681 0.405318,-0.93217 0.405318,-1.3153 0,-0.5297 0.165074,-0.62039 0.340634,-0.43517 0.175561,0.18523 0.361608,0.64637 0.403555,1.22032 0.03159,0.43231 0.01224,0.77581 -0.07975,1.10905 -0.196568,0.71208 -0.600868,1.058 -0.99443,1.89248 -0.122895,0.26058 -0.199175,0.47912 -0.199175,0.59272 0,0.55532 0.709568,1.84395 1.516578,2.99375 0.591105,0.84218 2.302717,3.13787 2.430287,1.67459 0.03527,-0.40459 0.0031,-1.1322 -0.07533,-2.42425 -0.09379,-1.54423 -0.237476,2.17573 0.02946,-2.75707 0.01841,-0.34028 21.855793,0.66228 22.250813,1.42619 z"
       id="ganesha-head"
       sodipodi:nodetypes="cscssssssscssscssssssscccsssccccssssssscssssscssscccsssssssssssssssssssssscscc" /><path
       id="ganesha-modak"
       style="fill:none;stroke:#222b00"
       d="m 109.32098,180.0686 c -0.0248,4e-5 -0.0513,0.008 -0.0786,0.0248 -0.34898,0.21569 -0.33846,1.61621 0.017,2.28048 0.32231,0.60223 1.7746,1.55523 2.3642,1.55133 0.21828,-0.001 0.66477,-0.0745 0.99219,-0.16227 0.86312,-0.23131 0.73892,-0.48172 -0.5209,-1.04954 -1.50043,-0.67629 -2.58796,-1.62705 -2.58796,-2.2624 0,-0.23294 -0.0785,-0.3826 -0.18603,-0.3824 z m -0.86558,1.0175 c -0.002,2.6e-4 -0.004,9.1e-4 -0.007,0.002 -1.95734,1.00042 -3.59938,1.87184 -3.69642,1.96164 -0.24605,0.22766 0.67001,0.60736 1.47433,0.61133 0.45123,0.002 1.1971,-0.12725 1.65778,-0.28784 0.76747,-0.26754 0.83149,-0.37819 0.76688,-1.3224 -0.0376,-0.54905 -0.12432,-0.97266 -0.19585,-0.9648 z m 0.74155,2.97347 c -0.29092,1.2e-4 -0.57788,0.12115 -1.12551,0.36328 -1.03515,0.4579 -1.15575,0.61962 -1.57406,2.11047 -0.5473,1.95054 -0.82314,4.08761 -0.60203,4.6638 0.13802,0.3597 0.62355,0.41131 3.27576,0.34778 l 3.11403,-0.0744 -0.0233,-0.66145 c -0.0128,-0.3638 -0.18918,-1.83828 -0.39222,-3.27681 l -0.36949,-2.61534 -1.15393,-0.49506 c -0.56373,-0.24165 -0.85837,-0.36238 -1.14929,-0.36225 z m -5.60276,0.16794 c -2.04756,0.0113 -3.29589,1.52766 -3.860743,4.64262 -0.456788,2.51902 -0.355278,2.59802 3.450953,2.69027 l 1.74718,0.0424 0.1664,-1.96939 c 0.0916,-1.08312 0.40668,-2.60117 0.70021,-3.37344 0.29352,-0.77227 0.53375,-1.4181 0.53382,-1.43557 8e-5,-0.0175 -0.536,-0.18193 -1.19114,-0.36535 -0.55902,-0.15652 -1.07416,-0.23413 -1.54668,-0.23152 z m 10.66757,0.14573 c -0.7564,0.0216 -1.78235,0.30077 -1.97301,0.60927 -0.13952,0.22573 0.78438,5.91691 1.02371,6.30607 0.0615,0.1 1.04599,0.12239 2.18798,0.0496 l 2.07636,-0.13229 -0.0382,-1.74511 c -0.0516,-2.3581 -1.149,-4.43412 -2.651,-5.01468 -0.1513,-0.0585 -0.37367,-0.0801 -0.6258,-0.0729 z m 4.93923,5.81257 c -0.12944,-5.2e-4 -0.16959,0.15561 -0.23616,0.50384 -0.10262,0.53685 -0.0188,0.64854 0.48524,0.64854 0.33503,0 0.67439,-0.10603 0.75448,-0.23564 0.0801,-0.1296 -0.13782,-0.42124 -0.48473,-0.64854 -0.26325,-0.1725 -0.41815,-0.2678 -0.51883,-0.2682 z m -20.75997,0.42013 c -0.05626,-0.001 -0.123264,0.0132 -0.200505,0.0429 -0.230183,0.0883 -0.527839,0.1602 -0.661458,0.1602 -0.133619,0 -0.242879,0.11906 -0.242879,0.26458 0,0.14552 0.297656,0.26458 0.661458,0.26458 0.431146,0 0.661458,-0.14816 0.661458,-0.4253 0,-0.20053 -0.07429,-0.30379 -0.218074,-0.30695 z m 10.50323,2.18746 c -9.428322,0 -13.460125,0.0854 -13.460156,0.28474 -1.27e-4,0.80834 3.07636,2.59486 5.864756,3.40547 3.36297,0.97764 9.52124,1.10282 13.47825,0.27441 2.79637,-0.58542 7.08762,-2.68869 7.45898,-3.65611 0.0892,-0.23237 -3.2014,-0.30851 -13.34183,-0.30851 z" /><path
       id="ganesha-eyes"
       style="display:inline;fill:#000000"
       d="m 132.94486,114.35529 c -0.8242,0.007 -1.10198,0.14699 -1.60817,0.5824 -1.03899,0.8937 -0.76485,1.52342 0.663,1.52342 1.74407,0 5.03354,0.7785 6.76342,1.60042 1.88966,0.89784 4.12468,3.1234 4.90254,4.88187 0.28971,0.65496 0.59016,1.19063 0.66766,1.19063 0.2849,0 -0.25219,-1.76141 -0.97669,-3.20291 -1.86554,-3.71175 -5.65497,-6.35636 -9.37668,-6.5443 -0.4248,-0.0215 -0.76035,-0.0338 -1.03508,-0.0315 z m -48.156237,0.13695 c -1.65691,0.0133 -2.217029,0.14844 -3.761527,0.90743 -3.071438,1.50937 -5.601119,4.54009 -6.572209,7.87446 -0.317225,1.08924 0.249134,0.61341 1.015442,-0.85318 1.795341,-3.43599 4.592647,-4.90872 11.09803,-5.84409 1.230416,-0.17692 1.512412,-0.75757 0.741557,-1.52652 -0.488823,-0.48763 -0.865374,-0.5714 -2.521293,-0.5581 z m -4.789372,10.51047 c -0.227302,-0.0121 -0.113275,0.60382 0.28112,1.36012 0.311952,0.5982 0.329559,0.81845 0.07855,0.97358 -0.416026,0.25712 -1.187179,-0.1551 -1.546675,-0.82682 -0.305855,-0.5715 -0.79065,-0.70496 -0.79065,-0.21756 0,0.16816 0.293118,0.68974 0.651123,1.15911 0.642351,0.84216 0.643845,0.85952 0.136943,1.31826 -0.561905,0.50852 -0.665849,0.46551 -2.174544,-0.89865 -1.175266,-1.06268 -1.137416,-0.43993 0.05168,0.85008 0.602039,0.65313 0.980948,1.2581 0.841809,1.3441 -0.139139,0.086 -0.818261,-0.0858 -1.508952,-0.38189 -0.69069,-0.29606 -1.383206,-0.4958 -1.538924,-0.4439 -0.315354,0.10512 1.954437,1.50947 2.439644,1.50947 0.428553,0 0.383527,0.40117 -0.08888,0.79323 -0.25768,0.21386 -0.951509,0.28864 -1.984375,0.21394 -0.873488,-0.0632 -1.588017,-0.0218 -1.588017,0.0915 0,0.38611 1.02104,0.75344 2.093413,0.75344 1.04346,0 1.062949,0.0166 0.771012,0.65733 -0.288286,0.63272 -0.534851,0.72847 -2.599841,1.01027 l -0.661459,0.0904 0.772046,0.32195 c 0.554609,0.2314 0.99094,0.24594 1.548226,0.0517 0.681473,-0.23756 0.754515,-0.21546 0.60203,0.18191 -0.09548,0.24882 -0.243905,1.60449 -0.329695,3.01273 -0.151788,2.49149 -0.174284,2.5645 -0.84491,2.71095 -0.774086,0.16904 -1.532616,0.60735 -1.34307,0.77618 0.06855,0.0611 1.196103,-0.058 2.50579,-0.26459 5.102498,-0.805 13.313794,-0.0534 17.197917,1.57407 0.873124,0.36585 1.739444,0.67855 1.924947,0.69505 0.688647,0.0612 0.909295,-1.381 0.764811,-4.99711 -0.146491,-3.66637 -0.505155,-5.48732 -1.475879,-7.49257 -1.937443,-4.00223 -6.604391,-6.06865 -10.871171,-4.81314 -2.698941,0.79417 -2.574323,0.79891 -2.771924,-0.10077 -0.09863,-0.44905 -0.288905,-0.88439 -0.42323,-0.96739 -0.04656,-0.0288 -0.08638,-0.0432 -0.118856,-0.045 z m 59.579309,0.0408 c -0.12764,-0.0301 -0.22417,0.12502 -0.31523,0.48783 -0.0939,0.37414 -0.39003,0.87906 -0.65835,1.12189 -0.45777,0.41428 -0.59898,0.39737 -2.2872,-0.27802 -1.6059,-0.64243 -2.04245,-0.70594 -4.06435,-0.59066 -4.8159,0.27459 -8.02887,2.95664 -9.24698,7.71943 -0.5925,2.31663 -0.75572,8.00662 -0.26666,9.29297 0.19906,0.52356 0.38677,0.65842 0.72761,0.52296 1.96607,-0.78132 5.38782,-1.74177 7.23522,-2.03088 2.389,-0.37387 10.41461,-0.47737 12.47262,-0.16071 1.40401,0.21603 1.68924,-0.12289 0.46302,-0.55036 -0.77656,-0.27072 -0.79385,-0.31558 -0.79685,-2.07636 -0.002,-0.98984 -0.0757,-2.24045 -0.16485,-2.77915 l -0.16174,-0.97979 1.08778,0.0434 c 0.59824,0.0239 1.23182,-0.10062 1.40819,-0.27699 0.25118,-0.25118 0.16986,-0.32091 -0.37621,-0.32091 -1.27849,0 -2.56548,-0.69297 -2.57968,-1.38906 -0.002,-0.10913 0.44928,-0.19844 1.00355,-0.19844 0.55427,0 1.23889,-0.17496 1.52136,-0.38861 0.46966,-0.35527 0.37343,-0.38887 -1.12448,-0.39687 -1.71791,-0.009 -2.40371,-0.41538 -1.54771,-0.91777 0.8495,-0.49857 1.99522,-1.51174 1.99522,-1.76424 0,-0.13504 -0.59136,0.0544 -1.31413,0.42065 -1.54296,0.78188 -1.74994,0.80677 -1.96732,0.24029 -0.1013,-0.26398 0.13865,-0.76861 0.63304,-1.3317 1.12822,-1.28497 0.998,-1.80633 -0.18139,-0.72605 -1.0833,0.99226 -1.34194,1.06013 -2.05465,0.53898 -0.47022,-0.34384 -0.4676,-0.37678 0.0749,-0.91932 0.68625,-0.68627 1.00937,-1.83592 0.62425,-2.22105 -0.0504,-0.0504 -0.0965,-0.0814 -0.13901,-0.0915 z" /><path
       style="display:inline;fill:none;stroke:#222b00"
       d="m 87.815246,187.80614 c 0.615212,-0.55491 1.683901,-1.35859 2.374865,-1.78594 0.690964,-0.42735 1.256511,-0.87106 1.256771,-0.98603 7.61e-4,-0.33646 -3.25955,-2.88955 -1.789297,-3.79823 0.179794,-0.11112 2.114559,-0.21756 4.299479,-0.23653 4.373144,-0.038 6.230416,-0.38189 9.661136,-1.78889 3.21267,-1.31759 5.02002,-2.51954 7.41046,-4.92822 4.35881,-4.39206 6.75285,-9.1514 7.66243,-15.23285 0.42599,-2.84819 -0.21492,-3.68763 0.36231,-3.68763 l -21.748462,-1.05159 c 0.59287,1.14649 0.92826,6.20126 0.50283,8.37063 -0.48866,2.49177 -2.156586,5.76551 -3.748532,7.35746 -1.069355,1.06935 -2.202641,1.76255 -5.43516,3.32454 -4.595164,2.22043 -6.145018,3.42586 -6.882115,5.3527 -0.64042,1.67412 -0.573499,3.81052 0.173399,5.53562 0.628281,1.45112 3.621191,4.56382 4.388194,4.56382 0.216208,0 0.896462,-0.45402 1.511674,-1.00894 z"
       id="ganesha-trunk"
       sodipodi:nodetypes="csssssssccsssssscc" /></g></svg>
